<?xml version="1.0" standalone="no"?>
<!DOCTYPE svg PUBLIC "-//W3C//DTD SVG 20010904//EN"
 "http://www.w3.org/TR/2001/REC-SVG-20010904/DTD/svg10.dtd">
<svg version="1.0" xmlns="http://www.w3.org/2000/svg"
 width="290.000000pt" height="290.000000pt" viewBox="0 0 290.000000 290.000000"
 preserveAspectRatio="xMidYMid meet">
<metadata>
Created by potrace 1.11, written by Peter Selinger 2001-2013
</metadata>
<g transform="translate(0.000000,290.000000) scale(0.100000,-0.100000)"
fill="#000000" stroke="none">
<path d="M0 1582 l0 -1318 36 -18 c20 -9 39 -14 43 -10 3 4 1 9 -6 11 -10 3
-10 7 -1 17 10 10 17 8 38 -11 30 -27 50 -30 51 -5 0 12 3 11 10 -7 7 -19 12
-21 23 -12 12 10 15 8 19 -11 3 -21 5 -20 17 11 12 32 14 33 27 15 8 -10 18
-19 23 -19 13 0 50 -33 50 -45 0 -5 -7 -7 -15 -4 -8 4 -15 3 -15 -1 0 -3 7
-13 15 -21 8 -9 15 -11 15 -5 0 6 5 11 10 11 7 0 7 -6 0 -19 -13 -26 -13 -31
5 -31 29 0 -33 -47 -99 -75 -36 -15 -66 -30 -66 -32 0 -1 145 -3 321 -3 l322
0 -50 53 c-31 32 -54 67 -58 87 -4 19 -14 39 -21 45 -16 12 -54 164 -54 216 0
32 3 37 18 33 16 -5 16 -5 0 6 -19 12 -26 76 -7 65 6 -4 8 -13 5 -20 -4 -12
24 -43 54 -59 8 -4 0 6 -19 23 l-33 30 34 -3 c19 -2 41 -6 49 -10 8 -4 5 0 -6
9 -11 9 -30 25 -42 35 -13 11 -23 17 -23 13 0 -4 -7 2 -15 13 -17 22 -20 60
-5 69 6 3 10 -2 10 -13 0 -20 29 -52 48 -52 7 0 12 11 12 24 0 13 3 31 6 39 5
14 8 13 23 -1 18 -18 16 -62 -2 -62 -13 0 20 -24 46 -33 16 -6 16 -5 1 25 -9
18 -12 33 -6 37 5 3 6 15 1 26 -4 11 -8 16 -8 11 -1 -6 -7 -1 -15 9 -10 14
-11 25 -5 37 7 13 6 16 -4 12 -13 -5 -43 43 -33 53 2 2 7 -5 11 -16 3 -12 11
-21 16 -21 13 0 11 13 -6 36 -8 10 -15 27 -15 36 0 9 -5 18 -11 20 -6 2 -9 15
-7 28 l3 25 17 -30 c9 -16 26 -49 38 -73 21 -43 47 -59 35 -22 -7 23 7 27 24
7 8 -10 7 -17 -2 -26 -10 -11 -8 -12 9 -7 22 7 37 -4 98 -78 21 -25 45 -46 52
-46 12 0 19 -19 15 -42 0 -4 5 -5 13 -2 8 3 31 -12 52 -33 42 -42 130 -76 143
-55 4 7 18 0 39 -18 19 -16 50 -34 70 -41 20 -6 42 -15 48 -20 5 -4 21 -6 35
-3 13 2 18 2 12 -2 -18 -8 -16 -24 2 -24 8 0 19 9 25 20 6 11 17 20 25 20 7 0
27 24 43 53 15 28 43 75 61 103 41 66 54 116 35 143 -21 29 1 36 23 7 11 -13
25 -43 32 -67 82 -268 157 -444 190 -444 7 0 20 -18 28 -40 8 -22 21 -55 30
-72 l16 -33 446 0 447 0 11 30 c8 22 20 32 42 36 23 5 31 12 31 28 0 12 -5 27
-12 34 -9 9 -9 12 0 12 22 0 14 48 -9 55 -12 4 -24 3 -28 -2 -9 -15 -41 -24
-41 -12 0 6 -5 7 -11 4 -7 -5 -9 9 -7 41 3 48 4 49 56 73 40 20 52 31 52 48 0
27 -23 35 -114 38 -33 1 -64 3 -68 4 -11 2 -10 65 2 96 7 20 31 36 95 66 60
28 85 45 85 58 0 14 -8 17 -37 15 -40 -2 -117 -20 -145 -34 -15 -8 -65 -12
-113 -9 -49 4 -66 52 -37 106 16 29 15 33 -7 33 -20 0 -240 67 -326 99 -27 11
-79 29 -115 40 -49 15 -55 19 -25 15 22 -3 37 -2 33 2 -4 4 0 13 10 21 14 11
15 12 1 7 -13 -4 -18 3 -21 33 -3 21 -2 40 2 43 19 14 27 45 19 68 -8 20 -7
23 6 18 11 -4 15 1 15 19 0 14 -6 25 -12 25 -9 0 -8 3 2 10 11 7 15 38 17 142
2 73 6 147 9 163 4 17 7 62 7 100 0 39 2 74 5 80 11 18 0 90 -14 98 -11 6 -11
12 -1 28 26 42 -50 54 -95 15 -34 -28 -35 -36 -5 -37 17 -1 15 -3 -11 -12 -25
-8 -32 -15 -30 -31 2 -15 -2 -20 -14 -18 -10 2 -18 -1 -18 -7 0 -12 25 -38 42
-44 7 -2 10 -7 6 -11 -3 -4 -16 -3 -27 4 -29 15 -26 -1 4 -24 l25 -19 -25 -23
c-14 -13 -25 -28 -25 -34 0 -13 -22 -52 -35 -63 -6 -5 -1 -14 13 -24 34 -24
29 -46 -9 -38 -25 6 -31 4 -36 -14 -3 -11 -9 -18 -14 -15 -5 3 -9 -2 -9 -10 0
-16 -16 -21 -53 -18 -11 1 -15 -2 -11 -9 4 -7 1 -10 -7 -7 -19 6 -20 87 -2
113 7 11 13 26 13 34 0 8 10 25 22 38 18 20 20 27 11 42 -7 11 -9 22 -6 25 12
11 9 71 -5 104 -7 20 -9 31 -3 27 6 -3 11 -13 11 -21 0 -8 4 -14 9 -14 5 0 8
16 6 35 -2 20 1 33 6 30 5 -4 9 -2 9 4 0 5 -5 13 -11 17 -6 3 -9 17 -6 30 5
30 -7 31 -20 2 -11 -23 -11 -23 -18 5 -8 30 -24 37 -26 10 -1 -10 -5 -2 -9 17
-5 19 -6 45 -3 58 3 12 1 22 -6 22 -6 0 -7 -7 -4 -17 6 -14 2 -13 -21 5 -16
12 -32 19 -37 16 -5 -3 -6 2 -3 11 5 11 -2 19 -25 28 -17 6 -31 15 -31 19 0 5
-12 6 -27 2 -22 -4 -25 -3 -13 5 13 10 13 12 0 21 -17 11 -32 9 -30 -5 2 -13
-29 -24 -65 -23 l-30 0 28 11 c15 6 27 14 27 19 0 4 -12 3 -27 -3 -61 -23 -93
-42 -93 -55 0 -22 -20 -16 -21 6 -1 11 -3 25 -4 30 -1 6 -4 20 -5 33 -2 20 -3
20 -7 2 -12 -55 -26 -84 -41 -88 -10 -3 -5 -5 11 -6 15 0 27 -6 27 -12 0 -5 4
-7 10 -4 6 4 9 -9 9 -32 -1 -21 6 -56 15 -77 9 -21 20 -62 26 -90 5 -28 16
-77 25 -109 13 -46 14 -61 4 -73 -7 -9 -8 -14 -1 -14 6 0 14 -9 17 -20 7 -23
-12 -53 -29 -47 -6 2 -31 -2 -55 -9 -25 -7 -49 -10 -55 -7 -5 4 -47 6 -92 5
-73 -1 -82 1 -87 19 -3 10 -1 22 4 25 5 3 9 14 9 25 0 10 7 19 15 19 8 0 15 5
15 10 0 20 -38 9 -66 -18 -47 -47 -104 -113 -104 -122 0 -5 -8 -15 -19 -22
-19 -13 -21 -18 -21 -43 0 -8 -6 -15 -14 -15 -15 0 -29 -27 -21 -40 3 -4 -2
-13 -10 -20 -8 -7 -12 -16 -9 -21 3 -5 1 -9 -5 -9 -5 0 -11 6 -13 12 -3 7 -7
3 -10 -8 -4 -18 -2 -21 15 -16 18 5 18 2 -6 -33 -20 -29 -24 -42 -16 -52 8 -9
7 -19 -5 -37 -9 -14 -13 -31 -10 -39 6 -17 -11 -63 -32 -84 -9 -9 -12 -19 -6
-25 14 -14 43 2 54 31 6 15 12 21 15 14 5 -15 33 -18 33 -4 0 5 8 12 18 15 9
4 28 13 42 20 27 16 216 36 228 25 6 -6 113 -18 187 -22 23 -1 51 -25 40 -35
-4 -4 -50 -8 -103 -9 -54 -1 -110 -3 -127 -6 -16 -2 -47 -5 -67 -6 -23 0 -38
-6 -38 -13 0 -18 -45 -37 -73 -31 -20 4 -20 3 -5 -9 15 -13 13 -14 -18 -15
-38 -1 -42 4 -16 23 19 15 5 17 -36 6 l-22 -7 24 -26 c35 -37 21 -53 -39 -45
-33 5 -45 11 -41 21 3 9 -4 15 -22 17 -16 2 -31 13 -39 28 -7 14 -19 24 -28
22 -22 -4 -19 30 5 51 11 9 26 14 35 11 10 -4 15 0 15 10 0 9 -3 16 -7 17 -5
0 -23 2 -40 5 -18 2 -33 0 -33 -5 0 -4 -19 -5 -42 -1 -24 5 -47 6 -51 3 -5 -3
-7 5 -5 18 2 16 9 23 21 21 30 -5 19 29 -13 41 -16 6 -30 17 -30 23 0 7 -3 21
-7 31 -5 14 0 13 22 -7 l27 -25 -5 40 c-6 40 -20 141 -23 160 -3 23 -17 44
-26 39 -5 -3 -4 -12 3 -20 10 -12 10 -15 -2 -12 -9 2 -13 -4 -11 -14 2 -10 -2
-18 -8 -18 -5 0 -10 6 -10 14 0 7 -6 19 -13 25 -19 16 -14 57 7 53 9 -2 16 2
16 8 0 18 20 11 21 -7 0 -15 2 -15 8 2 5 11 4 23 -1 26 -5 3 -10 10 -11 15 -1
5 -15 16 -32 24 -16 8 -31 21 -31 28 -1 6 -2 21 -3 32 -1 12 -6 17 -15 14 -16
-6 -32 48 -21 66 4 6 -1 14 -12 16 -45 12 -62 106 -33 183 12 31 14 33 21 15
6 -16 8 -15 8 8 1 17 -4 27 -11 25 -8 -1 -12 6 -11 18 1 11 0 14 -3 7 -3 -6
-10 -10 -15 -7 -5 4 -6 0 -3 -8 4 -10 -6 -19 -30 -27 -20 -6 -36 -16 -36 -20
0 -5 8 -6 17 -3 12 5 15 2 10 -10 -3 -8 -1 -18 6 -21 9 -3 8 -7 -3 -15 -8 -6
-15 -16 -15 -23 0 -7 -8 -14 -17 -16 -10 -2 -18 1 -18 7 0 6 8 8 18 4 14 -5
13 -3 -3 10 -24 20 -46 22 -42 5 1 -7 -6 -12 -15 -12 -10 1 -18 -2 -18 -8 0
-5 -4 -6 -10 -3 -5 3 -10 1 -10 -5 0 -6 -10 -8 -23 -5 -13 4 -31 7 -40 9 -10
1 -22 7 -29 14 -9 9 -6 11 10 7 14 -2 23 2 27 16 4 11 15 19 28 18 21 0 21 -1
-2 -10 -13 -5 -22 -12 -19 -15 9 -8 58 7 58 18 0 6 7 8 15 4 8 -3 15 -1 15 4
0 5 10 10 23 12 14 2 23 11 25 26 l3 22 -34 -20 c-28 -16 -40 -18 -61 -10 -27
10 -27 30 -1 30 34 0 86 73 98 138 7 32 -8 46 -19 17 -4 -9 -19 -15 -35 -15
-23 0 -29 -5 -30 -22 -1 -18 -2 -19 -6 -5 -3 12 -12 17 -26 15 -12 -1 -27 1
-33 5 -7 4 -14 -1 -17 -13 -6 -21 -27 -28 -27 -8 0 15 -34 -21 -43 -46 -11
-28 -20 -12 -21 36 l-1 43 -37 -3 c-31 -3 -38 0 -38 14 0 9 3 15 6 11 8 -8 34
18 34 33 0 8 -6 7 -22 -1 -19 -10 -20 -9 -14 7 20 50 32 102 29 131 -1 18 2
35 7 38 6 3 10 15 10 25 0 10 26 43 57 74 32 31 52 56 45 56 -25 0 -11 19 23
30 21 7 35 18 35 28 0 12 -3 13 -12 4 -7 -7 -19 -12 -28 -11 -10 0 -11 2 -3 6
7 2 13 11 13 18 0 8 8 16 18 19 10 4 34 20 53 37 28 25 31 32 19 39 -12 8 -11
10 7 10 12 0 25 5 28 10 3 6 -2 10 -11 10 -15 0 -15 3 4 21 12 11 20 24 18 28
-3 4 4 13 14 21 10 8 17 17 14 22 -3 4 0 8 5 8 6 0 10 4 9 9 -2 6 13 23 32 39
l34 29 -34 -4 c-33 -4 -34 -3 -16 11 11 9 25 16 31 16 7 0 30 13 52 29 41 30
104 46 161 42 20 -2 32 2 32 10 0 8 11 10 35 6 23 -4 33 -2 29 5 -4 6 1 8 16
3 20 -6 21 -5 11 14 -8 14 -8 21 -1 21 5 0 10 -4 10 -10 0 -17 41 -33 54 -20
8 8 6 9 -9 4 -11 -4 -17 -4 -13 1 4 4 0 14 -10 21 -12 10 -4 9 23 -2 22 -9 45
-20 52 -26 8 -7 10 -3 6 12 -5 19 -3 20 23 14 16 -4 40 -17 55 -30 29 -28 44
-31 35 -8 -5 13 -4 14 7 6 8 -7 17 -9 21 -5 3 4 13 -2 22 -13 10 -12 14 -14
11 -4 -2 8 -13 20 -25 26 -36 18 -37 24 -2 14 18 -5 43 -18 54 -29 23 -20 86
-38 86 -24 0 5 -5 14 -12 21 -7 7 -8 12 -3 12 6 0 28 -18 49 -40 22 -22 47
-40 55 -40 9 0 34 -15 56 -34 22 -19 43 -33 46 -30 13 7 46 -44 60 -92 l14
-46 60 5 c32 3 68 1 78 -5 15 -8 18 -7 12 2 -13 22 47 1 63 -21 7 -10 19 -19
27 -19 7 0 25 -15 40 -32 15 -18 42 -38 59 -44 22 -8 30 -16 28 -30 -2 -14 9
-27 37 -42 27 -16 38 -27 35 -40 -6 -23 35 -50 47 -31 4 8 12 10 16 5 4 -4 -1
-14 -11 -22 -19 -14 -19 -15 16 -52 19 -20 38 -45 41 -54 4 -10 11 -18 17 -18
5 0 10 -4 10 -10 0 -5 -8 -10 -17 -10 -12 0 -8 -6 12 -16 36 -18 65 -44 65
-56 0 -5 -14 -1 -31 7 -29 15 -32 15 -45 -2 -11 -16 -11 -19 4 -28 9 -5 32
-26 52 -46 19 -20 44 -41 55 -47 19 -10 19 -11 2 -18 -17 -6 -17 -7 0 -19 29
-22 8 -27 -36 -9 -44 17 -75 7 -65 -21 9 -24 -5 -36 -27 -25 -28 16 -24 -5 7
-29 38 -30 59 -26 99 16 24 26 35 32 35 21 0 -9 -4 -20 -10 -23 -5 -3 -10 -11
-10 -16 0 -16 58 32 63 52 8 30 -7 72 -27 75 -27 4 -31 13 -11 21 11 4 20 2
23 -5 4 -13 33 -17 31 -4 -4 23 3 42 15 42 8 0 17 8 19 18 4 15 5 15 6 0 0 -9
-3 -20 -9 -23 -18 -11 -11 -45 8 -45 15 0 22 -13 31 -56 12 -54 30 -228 36
-347 2 -57 22 -250 31 -315 4 -24 14 -39 38 -53 37 -21 37 -24 51 -248 3 -47
7 -87 9 -89 3 -2 13 1 23 6 16 9 18 21 17 74 -4 136 -8 169 -21 179 -7 6 -13
21 -13 34 0 48 133 60 333 30 l37 -5 0 55 0 55 -186 2 c-186 3 -187 3 -205 28
-17 22 -19 55 -25 320 -3 162 -7 301 -10 308 -2 7 -4 197 -4 423 -1 366 0 413
15 429 13 14 38 19 116 24 54 3 144 9 199 12 l100 6 0 44 0 44 -1450 0 -1450
0 0 -1318z m1224 1262 c3 -8 2 -12 -4 -9 -6 3 -10 10 -10 16 0 14 7 11 14 -7z
m-614 -58 c0 -2 -7 -7 -16 -10 -8 -3 -12 -2 -9 4 6 10 25 14 25 6z m1250 -277
c0 -13 -13 -11 -35 5 -18 13 -18 14 8 9 15 -3 27 -9 27 -14z m225 -219 c3 -5
1 -10 -4 -10 -6 0 -11 5 -11 10 0 6 2 10 4 10 3 0 8 -4 11 -10z m-1711 -415
c-10 -8 -25 -15 -33 -15 -11 0 -9 4 5 15 10 8 25 15 33 15 11 0 9 -4 -5 -15z
m-191 -22 c-7 -2 -21 -2 -30 0 -10 3 -4 5 12 5 17 0 24 -2 18 -5z m1605 -28
c-3 -3 -9 2 -12 12 -6 14 -5 15 5 6 7 -7 10 -15 7 -18z m-101 -33 c7 -4 -20
-8 -60 -8 -44 -1 -64 2 -52 7 26 10 97 11 112 1z m-1432 -92 c-4 -14 -2 -20 8
-20 12 0 14 -9 10 -40 -4 -30 -1 -45 12 -60 21 -23 41 -13 56 28 8 20 12 22
24 12 17 -14 38 -3 31 16 -7 17 2 18 17 1 22 -23 20 -40 -4 -34 -17 5 -20 2
-16 -14 4 -13 0 -19 -13 -19 -13 0 -19 -11 -24 -46 -3 -28 -2 -52 4 -59 8 -9
7 -14 -1 -17 -16 -5 5 -44 44 -81 35 -32 66 -31 45 3 -7 11 -20 19 -28 17 -8
-1 -15 5 -15 13 0 8 -4 21 -9 28 -5 8 -2 18 6 25 8 7 23 33 32 60 10 26 24 47
31 47 15 0 25 22 25 52 0 17 3 18 15 8 12 -10 15 -9 16 6 1 17 2 17 6 1 2 -9
9 -15 14 -12 10 7 12 -54 3 -79 -3 -9 -12 -16 -20 -16 -8 0 -14 -5 -14 -11 0
-5 5 -7 10 -4 6 3 10 1 10 -4 0 -6 -4 -11 -10 -11 -5 0 -10 -7 -10 -15 0 -8
-7 -15 -16 -15 -15 0 -15 -2 0 -25 9 -14 16 -31 15 -38 -3 -27 2 -37 20 -37
11 0 23 -5 27 -12 5 -8 11 -6 20 7 12 16 13 15 20 -9 3 -14 3 -34 -1 -43 -8
-17 -8 -17 -12 -1 -6 25 -32 10 -27 -15 13 -65 16 -107 6 -107 -5 0 -8 9 -5
20 3 11 0 20 -6 20 -6 0 -11 -9 -11 -20 0 -29 -59 -37 -102 -13 -55 30 -95 81
-96 123 -1 21 -9 50 -17 66 l-15 29 0 -25 c0 -15 4 -30 9 -35 13 -13 1 -67
-13 -62 -6 2 -11 15 -11 28 0 29 -13 51 -25 44 -5 -3 -11 -1 -15 5 -3 6 1 13
9 16 18 7 22 34 5 34 -6 0 -8 12 -6 29 4 23 2 28 -9 24 -8 -3 -14 1 -14 11 0
9 -6 13 -15 10 -9 -4 -18 1 -22 12 -4 10 -2 19 3 21 5 2 16 8 24 13 13 9 12
12 -5 26 -17 13 -18 16 -5 24 10 6 15 27 16 62 2 75 3 78 15 78 6 0 8 -9 4
-20z m1324 -4 c16 -9 44 -12 80 -9 76 7 59 -6 -20 -16 l-64 -7 60 -13 c43 -10
60 -10 63 -2 6 19 29 12 36 -11 9 -34 -19 -51 -74 -44 -25 4 -46 11 -48 16 -2
6 -12 10 -22 10 -39 0 -50 11 -50 51 0 43 3 45 39 25z m-1379 -26 c0 -5 -5
-10 -11 -10 -5 0 -7 5 -4 10 3 6 8 10 11 10 2 0 4 -4 4 -10z m-35 -30 c-3 -5
-11 -10 -16 -10 -6 0 -7 5 -4 10 3 6 11 10 16 10 6 0 7 -4 4 -10z m1603 -17
c-2 -14 4 -18 27 -18 21 0 33 -7 42 -25 14 -28 16 -74 4 -105 -7 -16 -9 -14
-14 14 -7 32 -27 35 -27 3 0 -15 -2 -15 -10 -2 -6 10 -10 11 -10 3 0 -7 -9
-13 -20 -13 -11 0 -20 -6 -20 -12 -1 -21 -39 -60 -51 -53 -8 5 -8 2 -1 -12 9
-15 6 -22 -10 -32 -11 -7 -21 -11 -23 -9 -9 11 -35 69 -35 80 0 7 -11 40 -25
72 -25 61 -26 77 -2 58 7 -6 43 -16 80 -22 53 -8 70 -8 80 2 13 14 16 43 4 54
-11 11 -9 34 3 34 6 0 10 -8 8 -17z m339 -9 c-3 -3 -12 -4 -19 -1 -8 3 -5 6 6
6 11 1 17 -2 13 -5z m-1522 -214 c3 -5 1 -10 -4 -10 -6 0 -11 5 -11 10 0 6 2
10 4 10 3 0 8 -4 11 -10z m611 -26 c-4 -14 -4 -34 -1 -44 6 -19 70 -65 90 -65
6 0 9 -11 7 -23 -3 -20 0 -23 20 -20 25 3 58 -23 58 -47 0 -8 4 -15 8 -15 4 0
9 -10 9 -22 2 -19 0 -20 -8 -8 -9 12 -11 13 -16 1 -5 -11 -7 -11 -14 0 -6 9
-8 0 -8 -26 1 -22 4 -31 6 -21 4 15 7 16 14 5 7 -11 9 -11 9 -1 0 7 5 10 10 7
6 -3 10 -2 10 4 0 6 7 8 15 5 18 -7 20 17 4 33 -8 8 -7 17 4 33 11 15 16 18
20 8 4 -10 8 -10 16 2 9 13 11 13 11 -1 0 -9 7 -22 15 -29 25 -21 17 -32 -17
-24 -31 6 -32 5 -18 -11 12 -14 12 -19 3 -22 -21 -7 -15 -19 12 -21 14 -1 25
3 25 8 0 6 5 10 11 10 8 0 8 -5 -1 -15 -7 -8 -23 -15 -35 -15 -13 0 -25 -4
-27 -8 -1 -5 -15 -12 -30 -16 -22 -5 -28 -3 -28 9 0 10 -5 13 -12 9 -17 -11
-90 -5 -105 8 -7 6 -13 21 -13 35 0 14 -4 21 -10 18 -6 -4 -7 -11 -4 -17 15
-25 -70 -40 -94 -16 -8 8 -15 8 -28 -3 -16 -13 -17 -11 -11 16 7 30 7 30 -7 6
l-14 -24 -7 22 c-4 12 -9 21 -11 19 -8 -9 21 -68 33 -68 13 0 19 -20 6 -20 -5
0 -19 -3 -33 -7 -21 -5 -23 -4 -13 8 17 21 0 44 -23 34 -11 -5 -22 -8 -25 -7
-4 1 -6 -10 -6 -24 0 -27 -28 -63 -39 -51 -4 4 3 19 17 34 16 18 17 22 5 13
-18 -14 -19 -13 -12 5 5 11 8 28 8 37 0 10 5 15 12 12 10 -4 13 7 13 37 0 24
6 47 14 53 8 6 27 37 43 69 31 61 113 157 135 157 9 0 11 -8 7 -26z m729 -101
c7 -26 8 -26 15 -8 7 16 9 14 9 -12 1 -18 6 -33 11 -33 6 0 10 -11 10 -24 0
-13 7 -29 15 -36 14 -11 14 -15 -2 -32 -17 -19 -17 -20 0 -33 20 -15 23 -26 3
-19 -8 3 -17 1 -20 -4 -3 -5 2 -12 13 -15 14 -3 19 -18 24 -63 4 -36 2 -60 -4
-63 -6 -1 5 -14 22 -27 40 -29 38 -29 -53 -4 -40 11 -84 20 -98 21 l-25 1 25
9 c19 7 15 8 -20 5 -25 -2 -37 -2 -27 1 9 2 15 8 12 13 -3 5 3 14 14 19 11 6
21 26 25 48 9 49 26 93 37 93 5 0 9 7 9 15 0 8 -4 15 -10 15 -5 0 -10 -5 -10
-11 0 -5 -5 -7 -10 -4 -6 4 -8 11 -4 16 3 5 2 15 -3 22 -8 10 -9 34 -4 92 2
24 16 17 28 -12 l11 -28 1 27 c1 15 -3 30 -9 33 -12 8 -13 25 -1 25 5 0 12
-12 16 -27z m55 -3 c0 -16 -4 -30 -10 -30 -5 0 -10 14 -10 30 0 17 5 30 10 30
6 0 10 -13 10 -30z m-1380 -12 c0 -16 -3 -19 -11 -11 -6 6 -8 16 -5 22 11 17
16 13 16 -11z m104 -43 c3 -8 1 -15 -4 -15 -6 0 -10 7 -10 15 0 8 2 15 4 15 2
0 6 -7 10 -15z m1132 -32 c-11 -11 -19 6 -11 24 8 17 8 17 12 0 3 -10 2 -21
-1 -24z m-59 5 c-3 -8 -6 -5 -6 6 -1 11 2 17 5 13 3 -3 4 -12 1 -19z m43 -36
c0 -10 -7 -27 -15 -38 -16 -21 -20 -8 -9 34 8 26 24 29 24 4z m-273 -74 c-3
-8 -6 -5 -6 6 -1 11 2 17 5 13 3 -3 4 -12 1 -19z m246 -111 c8 -6 7 -7 -3 -4
-11 3 -15 19 -16 63 l-1 59 4 -55 c2 -30 10 -58 16 -63z m-1043 83 c0 -5 -2
-10 -4 -10 -3 0 -8 5 -11 10 -3 6 -1 10 4 10 6 0 11 -4 11 -10z m1085 -70 c-3
-5 -12 -10 -18 -10 -7 0 -6 4 3 10 19 12 23 12 15 0z m-1005 -31 c0 -5 -7 -9
-15 -9 -8 0 -15 -5 -15 -12 0 -6 -2 -9 -5 -7 -10 11 8 47 21 42 8 -3 14 -9 14
-14z m887 15 c-3 -3 -12 -4 -19 -1 -8 3 -5 6 6 6 11 1 17 -2 13 -5z m-837
-116 c0 -12 -28 3 -34 18 -4 11 -2 12 14 1 11 -6 20 -15 20 -19z m47 -24 c-3
-3 -12 -4 -19 -1 -8 3 -5 6 6 6 11 1 17 -2 13 -5z m421 -17 c6 -5 12 -4 12 1
0 5 11 7 25 4 24 -4 36 -22 14 -22 -5 0 -7 -4 -4 -10 3 -5 1 -10 -4 -10 -6 0
-11 8 -12 18 0 13 -2 13 -9 -4 -10 -25 -28 -39 -38 -29 -3 3 0 10 8 15 8 5 12
12 8 15 -8 8 -47 -12 -68 -35 -8 -10 -42 -26 -74 -36 -47 -14 -55 -19 -40 -26
12 -5 1 -7 -31 -4 -27 2 -51 8 -53 15 -2 6 -14 11 -27 11 -29 0 -43 18 -21 26
9 3 13 10 10 15 -6 10 -39 7 -50 -4 -12 -11 -46 -8 -39 3 4 7 -3 9 -22 5 -27
-5 -26 -4 5 10 35 16 165 22 214 10 19 -5 29 -2 35 10 13 23 133 40 161 22z
m630 -23 c54 -24 69 -39 28 -28 -14 3 -27 1 -32 -7 -5 -9 -2 -11 9 -6 12 4 14
2 10 -10 -4 -10 -2 -14 4 -10 7 4 12 -8 15 -33 4 -49 -14 -70 -60 -70 -27 0
-32 4 -32 23 0 13 -6 29 -12 35 -9 9 -9 15 -3 20 6 4 18 19 28 34 12 20 13 26
3 22 -9 -4 -13 2 -11 20 2 16 -1 23 -9 20 -7 -3 -19 3 -27 12 -13 15 -11 16
11 9 14 -4 49 -18 78 -31z m232 5 c25 -14 -9 -10 -50 7 l-35 14 35 -6 c19 -4
42 -10 50 -15z m-300 -9 c8 -5 11 -12 8 -16 -4 -3 -14 1 -23 10 -18 17 -9 21
15 6z m380 -22 c10 -6 6 -7 -15 -3 -16 4 -34 11 -40 17 -12 12 31 1 55 -14z
m-370 -18 c0 -5 -5 -10 -11 -10 -5 0 -7 5 -4 10 3 6 8 10 11 10 2 0 4 -4 4
-10z m391 -85 c164 -60 165 -60 46 -63 -135 -3 -159 4 -171 51 -7 27 -15 37
-30 38 -18 2 -17 2 3 6 19 4 21 7 10 15 -10 7 -9 8 6 3 11 -5 72 -27 136 -50z
m-721 -42 c0 -16 -5 -35 -10 -43 -7 -11 -10 -4 -10 28 0 23 5 42 10 42 6 0 10
-12 10 -27z m1187 -385 c-3 -8 -6 -5 -6 6 -1 11 2 17 5 13 3 -3 4 -12 1 -19z"/>
<path d="M291 1444 c0 -11 3 -14 6 -6 3 7 2 16 -1 19 -3 4 -6 -2 -5 -13z"/>
<path d="M472 1355 c-7 -14 -26 -32 -43 -39 -40 -17 -27 -25 34 -20 28 2 47
-1 47 -7 0 -6 4 -8 9 -4 11 6 -5 63 -24 83 -9 10 -14 8 -23 -13z"/>
<path d="M1337 1183 c-4 -3 -7 -11 -7 -17 0 -6 5 -5 12 2 6 6 9 14 7 17 -3 3
-9 2 -12 -2z"/>
<path d="M1030 1150 c0 -5 5 -10 11 -10 5 0 7 5 4 10 -3 6 -8 10 -11 10 -2 0
-4 -4 -4 -10z"/>
<path d="M1310 1106 c0 -9 5 -16 10 -16 6 0 10 4 10 9 0 6 -4 13 -10 16 -5 3
-10 -1 -10 -9z"/>
<path d="M1261 1101 c-12 -8 -12 -12 1 -25 14 -14 17 -14 22 0 4 10 2 13 -6 8
-8 -5 -9 -2 -5 9 7 20 7 20 -12 8z"/>
<path d="M1848 953 c7 -3 16 -2 19 1 4 3 -2 6 -13 5 -11 0 -14 -3 -6 -6z"/>
<path d="M1115 751 c1 -10 10 -15 21 -13 26 5 26 6 -1 18 -19 9 -22 8 -20 -5z"/>
<path d="M2576 2702 c-15 -18 -15 -27 0 -138 15 -117 26 -209 44 -389 5 -49
11 -103 14 -120 3 -16 8 -78 10 -136 6 -120 18 -159 52 -159 39 0 54 -11 54
-39 0 -15 5 -32 12 -39 8 -8 8 -15 -2 -27 -9 -11 -10 -18 -1 -29 8 -10 9 -16
1 -21 -22 -14 -8 -33 29 -39 42 -6 66 -28 66 -60 0 -14 7 -22 23 -24 21 -3 22
0 22 67 0 61 -3 70 -20 76 -11 3 -20 11 -20 16 0 5 -7 9 -15 9 -8 0 -15 5 -15
11 0 7 -8 18 -17 25 -11 8 -13 13 -6 14 7 0 10 7 6 16 -3 8 4 25 16 38 12 12
18 26 14 30 -5 4 -3 6 2 5 6 -2 20 0 32 4 21 8 22 11 14 72 -1 6 -4 5 -9 -2
-10 -16 -44 -20 -49 -6 -3 7 7 15 21 19 27 6 35 29 14 37 -10 4 -10 8 1 15 16
12 -1 25 -22 16 -11 -4 -13 1 -9 21 3 17 0 30 -9 36 -7 4 -10 11 -6 16 5 4 12
1 16 -6 5 -8 14 -10 21 -6 9 6 9 10 -1 16 -11 8 -11 11 3 20 16 9 18 31 18
206 -1 121 3 200 10 207 6 6 10 59 10 122 l0 113 -42 5 c-24 2 -81 9 -129 15
-116 15 -133 14 -153 -7z"/>
<path d="M565 2465 c-16 -7 -23 -14 -14 -14 8 -1 24 6 35 14 24 18 18 18 -21
0z"/>
<path d="M733 2472 c-13 -2 -23 -8 -23 -13 0 -9 37 -3 49 7 8 7 -4 10 -26 6z"/>
<path d="M790 2469 c0 -5 5 -7 10 -4 6 3 10 8 10 11 0 2 -4 4 -10 4 -5 0 -10
-5 -10 -11z"/>
<path d="M650 2420 c-18 -12 -2 -12 25 0 13 6 15 9 5 9 -8 0 -22 -4 -30 -9z"/>
<path d="M720 2415 c-7 -8 -20 -15 -29 -15 -16 -1 -62 -30 -46 -30 5 0 0 -7
-11 -16 -18 -14 -18 -15 6 -8 37 9 89 43 100 65 13 23 -2 26 -20 4z m-35 -35
c-3 -5 -12 -10 -18 -10 -7 0 -6 4 3 10 19 12 23 12 15 0z"/>
<path d="M1862 2408 c3 -7 13 -15 24 -17 16 -3 17 -1 5 13 -16 19 -34 21 -29
4z"/>
<path d="M380 2358 c0 -7 5 -20 11 -28 9 -13 10 -13 6 1 -5 14 2 16 41 13 l47
-4 -30 15 c-37 18 -75 19 -75 3z"/>
<path d="M670 2341 c-8 -6 -17 -8 -21 -5 -4 2 -10 0 -14 -6 -3 -5 -1 -10 6
-10 10 0 10 -3 1 -12 -7 -7 -12 -19 -12 -27 1 -12 4 -11 12 4 6 11 20 30 31
43 22 23 21 27 -3 13z"/>
<path d="M720 2320 c0 -5 5 -10 10 -10 6 0 10 5 10 10 0 6 -4 10 -10 10 -5 0
-10 -4 -10 -10z"/>
<path d="M750 2299 c0 -5 5 -7 10 -4 6 3 10 8 10 11 0 2 -4 4 -10 4 -5 0 -10
-5 -10 -11z"/>
<path d="M485 2291 c-16 -3 -25 -9 -19 -13 10 -7 81 6 91 16 8 7 -32 6 -72 -3z"/>
<path d="M540 2261 c-23 -6 -23 -8 -6 -14 13 -5 25 -2 35 8 16 16 11 17 -29 6z"/>
<path d="M265 2130 c-12 -4 -27 -16 -35 -25 -14 -17 -13 -17 17 -2 17 9 35 21
38 27 7 12 7 12 -20 0z"/>
<path d="M208 2073 c-17 -4 -34 -40 -24 -50 3 -4 17 6 30 20 25 27 24 36 -6
30z"/>
<path d="M265 2040 c-3 -5 2 -10 12 -10 15 0 16 -2 3 -10 -13 -8 -12 -10 3
-10 19 0 20 1 11 24 -7 18 -20 21 -29 6z"/>
<path d="M230 2030 c0 -5 5 -10 11 -10 5 0 7 5 4 10 -3 6 -8 10 -11 10 -2 0
-4 -4 -4 -10z"/>
<path d="M930 2009 c-9 -15 -8 -24 1 -35 10 -12 14 -11 30 8 11 11 22 18 26
15 3 -4 4 -8 2 -10 -2 -2 -16 -13 -32 -24 -30 -23 -64 -20 -69 6 -3 12 -15 4
-50 -31 -26 -26 -57 -52 -68 -58 -11 -6 -19 -14 -19 -18 1 -4 1 -15 0 -26 -1
-15 -4 -16 -16 -6 -13 11 -15 7 -15 -29 l0 -41 25 22 c13 11 22 25 19 29 -2 4
0 10 6 14 5 3 10 -3 10 -14 0 -19 14 -22 38 -8 18 12 15 -9 -4 -28 -9 -9 -14
-19 -10 -22 3 -3 27 15 53 42 26 26 59 49 73 52 65 10 92 8 101 -8 9 -18 4
-20 -106 -35 -27 -4 -53 -11 -57 -17 -9 -15 2 -37 18 -37 8 0 13 -5 11 -11 -4
-18 72 -52 127 -56 74 -6 79 -9 64 -32 -16 -26 -86 -45 -137 -36 -56 9 -53
-10 3 -24 71 -18 98 -13 164 27 72 43 99 81 75 105 -16 16 -9 42 8 32 5 -4 12
1 15 9 3 9 11 16 16 16 6 0 8 -7 4 -15 -3 -8 -1 -15 4 -15 6 0 10 9 10 20 0
12 7 20 16 20 13 0 14 -3 4 -15 -16 -19 -6 -45 17 -44 17 1 17 2 1 6 -16 4
-16 6 -1 29 8 14 16 44 15 67 0 27 7 49 18 62 16 17 17 29 11 75 -7 46 -9 50
-11 20 -1 -19 -2 -38 -1 -42 0 -5 -4 -8 -9 -8 -5 0 -10 6 -10 13 0 13 -113 16
-185 4 -22 -4 -35 -4 -28 -1 18 8 4 34 -14 27 -11 -4 -14 -2 -9 5 9 15 -26 33
-45 21 -20 -12 -32 -11 -23 3 4 7 -9 2 -29 -10 -38 -22 -49 -16 -21 12 8 9 11
16 5 16 -6 0 -15 -9 -21 -21z m121 -283 c66 9 70 9 84 -12 16 -25 11 -34 -19
-33 -19 0 -19 1 -3 8 18 6 18 8 2 21 -12 10 -18 11 -24 2 -5 -8 -27 -10 -67
-7 -81 7 -84 7 -84 17 0 4 -8 8 -17 8 -15 0 -15 2 -4 9 9 6 23 4 39 -7 20 -13
35 -14 93 -6z"/>
<path d="M1802 2013 c-1 -25 19 -73 29 -73 5 0 3 13 -6 29 -8 17 -12 37 -9 45
3 9 2 16 -3 16 -5 0 -10 -8 -11 -17z"/>
<path d="M217 1996 c-19 -14 -24 -40 -6 -34 6 2 10 7 9 12 -1 5 4 12 11 17 8
4 11 10 9 13 -3 2 -13 -1 -23 -8z"/>
<path d="M1140 2000 c0 -5 5 -10 11 -10 5 0 7 5 4 10 -3 6 -8 10 -11 10 -2 0
-4 -4 -4 -10z"/>
<path d="M1208 1983 c6 -2 18 -2 25 0 6 3 1 5 -13 5 -14 0 -19 -2 -12 -5z"/>
<path d="M262 1960 c0 -14 2 -19 5 -12 2 6 2 18 0 25 -3 6 -5 1 -5 -13z"/>
<path d="M2125 1926 c11 -8 31 -16 45 -16 33 0 14 16 -30 25 -33 7 -34 6 -15
-9z"/>
<path d="M483 1815 c0 -7 8 -10 19 -7 10 2 18 6 18 7 0 1 -8 5 -18 7 -11 3
-19 0 -19 -7z"/>
<path d="M778 1779 c-21 -12 -24 -29 -4 -29 7 0 16 9 19 20 3 11 4 20 4 20 -1
0 -10 -5 -19 -11z"/>
<path d="M700 1740 c0 -9 90 -24 98 -16 9 10 0 13 -50 18 -27 3 -48 2 -48 -2z"/>
<path d="M820 1735 c-7 -9 -8 -15 -2 -15 5 0 12 7 16 15 3 8 4 15 2 15 -2 0
-9 -7 -16 -15z"/>
<path d="M1315 1740 c-3 -5 -1 -10 4 -10 6 0 11 5 11 10 0 6 -2 10 -4 10 -3 0
-8 -4 -11 -10z"/>
<path d="M1232 1721 c-10 -6 -8 -10 9 -14 26 -7 34 -3 24 12 -7 13 -15 14 -33
2z"/>
<path d="M2201 1714 c0 -11 3 -14 6 -6 3 7 2 16 -1 19 -3 4 -6 -2 -5 -13z"/>
<path d="M1301 1704 c0 -11 3 -14 6 -6 3 7 2 16 -1 19 -3 4 -6 -2 -5 -13z"/>
<path d="M590 1699 c0 -8 7 -24 16 -35 14 -18 15 -18 8 6 -8 31 -24 50 -24 29z"/>
<path d="M631 1684 c0 -11 3 -14 6 -6 3 7 2 16 -1 19 -3 4 -6 -2 -5 -13z"/>
<path d="M1330 1689 c0 -5 5 -7 10 -4 6 3 10 8 10 11 0 2 -4 4 -10 4 -5 0 -10
-5 -10 -11z"/>
<path d="M1218 1683 c6 -2 12 -11 12 -19 0 -8 5 -14 10 -14 16 0 11 27 -6 34
-9 3 -19 6 -22 5 -4 0 -1 -3 6 -6z"/>
<path d="M1905 1680 c3 -5 8 -10 11 -10 2 0 4 5 4 10 0 6 -5 10 -11 10 -5 0
-7 -4 -4 -10z"/>
<path d="M672 1610 c0 -14 2 -19 5 -12 2 6 2 18 0 25 -3 6 -5 1 -5 -13z"/>
<path d="M670 1561 c0 -11 4 -21 9 -21 23 0 35 -89 14 -97 -21 -8 -15 -26 7
-20 12 3 20 0 20 -6 0 -7 13 -25 29 -40 17 -15 33 -36 36 -47 6 -18 23 -25 48
-21 4 0 7 -4 7 -9 0 -5 7 -10 15 -10 8 0 29 -15 46 -32 17 -18 29 -26 26 -17
-3 9 0 22 6 28 8 8 6 15 -9 25 -15 12 -16 17 -7 27 10 10 8 16 -13 30 -14 9
-25 20 -24 25 1 5 -3 10 -9 12 -6 2 -11 -5 -12 -15 0 -14 -3 -12 -11 7 -6 15
-12 20 -15 13 -14 -37 -81 20 -105 89 -6 18 -22 48 -35 66 -19 30 -23 32 -23
13z m240 -281 c0 -5 -5 -10 -11 -10 -5 0 -7 5 -4 10 3 6 8 10 11 10 2 0 4 -4
4 -10z"/>
<path d="M2679 1568 c0 -7 -2 -30 -5 -50 -4 -37 -3 -38 26 -38 16 0 30 5 30
10 0 6 -4 10 -10 10 -5 0 -7 7 -4 15 5 12 10 13 20 4 11 -9 14 -8 14 2 0 22
-17 42 -29 35 -6 -4 -14 0 -17 8 -7 19 -24 21 -25 4z"/>
<path d="M1291 1532 c-1 -7 -6 -10 -13 -6 -8 5 -9 2 -5 -10 4 -10 7 -21 7 -24
0 -4 5 0 10 8 8 12 10 12 10 1 0 -11 3 -11 15 -1 8 7 15 19 15 27 0 12 -3 13
-14 4 -11 -9 -15 -9 -19 1 -4 11 -6 10 -6 0z"/>
<path d="M920 1390 c0 -5 5 -10 11 -10 5 0 7 5 4 10 -3 6 -8 10 -11 10 -2 0
-4 -4 -4 -10z"/>
<path d="M2140 960 c0 -11 2 -20 4 -20 2 0 6 9 9 20 3 11 1 20 -4 20 -5 0 -9
-9 -9 -20z"/>
<path d="M2685 898 c-7 -18 -23 -55 -34 -81 -12 -27 -21 -52 -21 -57 0 -5 37
5 83 21 45 16 96 29 112 29 74 1 104 32 43 45 -18 4 -64 23 -101 42 l-68 34
-14 -33z"/>
<path d="M2780 920 c0 -7 100 -60 114 -60 3 0 6 5 6 10 0 6 -5 10 -11 10 -6 0
-33 11 -60 25 -27 13 -49 20 -49 15z"/>
<path d="M2533 813 c9 -2 17 -8 17 -13 0 -5 3 -17 6 -27 5 -16 4 -16 -10 1
-16 19 -16 19 -16 -6 0 -18 7 -27 23 -32 39 -10 49 -7 45 17 -2 12 -9 21 -16
19 -8 -1 -11 5 -7 20 5 20 2 23 -27 24 -18 1 -25 -1 -15 -3z"/>
<path d="M795 660 c3 -5 8 -10 11 -10 2 0 4 5 4 10 0 6 -5 10 -11 10 -5 0 -7
-4 -4 -10z"/>
<path d="M822 620 c15 -23 28 -26 28 -6 0 8 -7 17 -16 20 -24 9 -25 8 -12 -14z"/>
<path d="M862 587 c-6 -7 -7 -19 -3 -26 6 -9 10 -6 14 10 8 28 3 34 -11 16z"/>
<path d="M890 576 c0 -25 12 -46 26 -46 8 0 14 -6 14 -12 0 -7 5 -5 11 5 12
21 4 38 -16 30 -10 -3 -15 2 -15 16 0 12 -4 21 -10 21 -5 0 -10 -6 -10 -14z"/>
<path d="M918 483 c7 -3 16 -2 19 1 4 3 -2 6 -13 5 -11 0 -14 -3 -6 -6z"/>
<path d="M1530 425 c-7 -9 -8 -15 -2 -15 5 0 12 7 16 15 3 8 4 15 2 15 -2 0
-9 -7 -16 -15z"/>
<path d="M650 402 c0 -23 17 -48 27 -39 4 5 1 12 -7 17 -11 7 -11 10 -2 10 7
0 15 -7 18 -15 4 -8 10 -15 15 -15 13 0 -19 47 -37 54 -9 3 -14 -1 -14 -12z"/>
<path d="M1510 385 c0 -8 2 -15 4 -15 2 0 6 7 10 15 3 8 1 15 -4 15 -6 0 -10
-7 -10 -15z"/>
<path d="M724 292 c13 -15 15 -22 6 -22 -7 0 -11 -3 -7 -6 3 -3 12 -2 20 3 12
6 10 12 -11 27 l-27 20 19 -22z"/>
<path d="M1420 301 c-19 -5 -31 -23 -53 -76 -29 -70 -70 -215 -64 -222 2 -2
141 -2 308 -1 l304 3 -75 37 c-41 20 -86 48 -99 62 -13 14 -28 23 -32 20 -5
-3 -6 3 -2 12 5 14 3 16 -11 11 -9 -4 -15 -3 -11 2 8 14 -110 130 -149 146
-37 16 -74 18 -116 6z"/>
</g>
</svg>
