<svg xmlns="http://www.w3.org/2000/svg" xmlns:xlink="http://www.w3.org/1999/xlink" viewBox="0 0 512 512"><defs><linearGradient id="a" x1="409.68" y1="194.17" x2="409.68" y2="419.54" gradientUnits="userSpaceOnUse"><stop offset="0" stop-color="#565656"/><stop offset="1" stop-color="#141414"/></linearGradient><linearGradient id="b" x1="102.32" y1="180.14" x2="102.32" y2="419.89" xlink:href="#a"/><linearGradient id="c" x1="409.68" y1="218.71" x2="409.68" y2="394.92" gradientUnits="userSpaceOnUse"><stop offset="0" stop-color="#f4f4f4"/><stop offset="1" stop-color="#e0e0e0"/></linearGradient><linearGradient id="d" x1="102.32" y1="218.71" x2="102.32" y2="394.92" xlink:href="#c"/><linearGradient id="e" x1="333.2" y1="128.9" x2="409.23" y2="128.9" xlink:href="#c"/><linearGradient id="f" x1="393.12" y1="152.31" x2="451.31" y2="152.31" xlink:href="#a"/><linearGradient id="g" x1="255.7" y1="102.03" x2="255.7" y2="320.35" gradientUnits="userSpaceOnUse"><stop offset="0" stop-color="#f7e006"/><stop offset="1" stop-color="#f9ae08"/></linearGradient><linearGradient id="h" x1="409.68" y1="282.75" x2="409.68" y2="329.83" xlink:href="#g"/><linearGradient id="i" x1="102.32" y1="282.75" x2="102.32" y2="329.83" xlink:href="#g"/><linearGradient id="j" x1="204.64" y1="313" x2="263.6" y2="313" xlink:href="#c"/><linearGradient id="k" x1="234.12" y1="300.42" x2="234.12" y2="381.92" xlink:href="#a"/><linearGradient id="l" x1="211.9" y1="372.9" x2="256.34" y2="372.9" xlink:href="#a"/><linearGradient id="m" x1="238.79" y1="115.88" x2="50.92" y2="115.88" xlink:href="#a"/></defs><title>Icon</title><path d="M409.68,210.68A102.32,102.32,0,1,0,512,313,102.32,102.32,0,0,0,409.68,210.68Zm0,178.7A76.38,76.38,0,1,1,486.05,313,76.37,76.37,0,0,1,409.68,389.37Z" fill="url(#a)"/><path d="M102.32,210.68A102.32,102.32,0,1,0,204.64,313,102.32,102.32,0,0,0,102.32,210.68Zm0,178.7A76.38,76.38,0,1,1,178.7,313,76.37,76.37,0,0,1,102.32,389.37Z" fill="url(#b)"/><path d="M409.68,397.1a84.1,84.1,0,1,1,84.1-84.1,84.2,84.2,0,0,1-84.1,84.1Zm0-152.75A68.65,68.65,0,1,0,478.33,313a68.73,68.73,0,0,0-68.65-68.65Z" fill="url(#c)"/><path d="M102.32,397.1a84.1,84.1,0,1,1,84.1-84.1,84.2,84.2,0,0,1-84.1,84.1Zm0-152.75A68.65,68.65,0,1,0,171,313a68.73,68.73,0,0,0-68.65-68.65Z" fill="url(#d)"/><path d="M401.51,136.63H340.92a7.73,7.73,0,1,1,0-15.45h60.58a7.73,7.73,0,1,1,0,15.45Z" fill="url(#e)"/><path d="M415.21,188.41h-9.4a12.69,12.69,0,1,1,0-25.37h9.4a10.73,10.73,0,1,0,0-21.45,12.69,12.69,0,1,1,0-25.37,36.1,36.1,0,1,1,0,72.2Z" fill="url(#f)"/><path d="M411.76,296.48,348.16,126.2a7.73,7.73,0,1,0-14.48,5.41l7.84,21H184l-7.39-19.79a7.73,7.73,0,1,0-14.48,5.41l8.09,21.67L100,300.42a7.72,7.72,0,0,0,1.93,9.35,7.71,7.71,0,0,0,7,11H214a7.73,7.73,0,0,0,0-15.45H114.82l62.75-125.62,42.9,114.86a7.73,7.73,0,1,0,14.48-5.41L189.72,168H347.29l1.94,5.2L243.82,290a7.73,7.73,0,0,0,11.47,10.36l100-110.8,42,112.34a7.73,7.73,0,0,0,14.48-5.41Z" fill="url(#g)"/><path d="M409.68,298.26A14.74,14.74,0,1,0,424.42,313,14.74,14.74,0,0,0,409.68,298.26Z" fill="url(#h)"/><path d="M102.32,298.26A14.74,14.74,0,1,0,117.06,313,14.74,14.74,0,0,0,102.32,298.26Z" fill="url(#i)"/><path d="M234.12,283.52A29.48,29.48,0,1,0,263.6,313,29.48,29.48,0,0,0,234.12,283.52Z" fill="url(#j)"/><path d="M234.12,379.62a7.73,7.73,0,0,1-7.73-7.73V313a7.73,7.73,0,1,1,15.45,0v58.89A7.73,7.73,0,0,1,234.12,379.62Z" fill="url(#k)"/><path d="M248.62,380.63h-29a7.73,7.73,0,0,1,0-15.45h29a7.73,7.73,0,0,1,0,15.45Z" fill="url(#l)"/><path d="M230.35,113.2a26.53,26.53,0,0,0-24.56-16.52H126.63a11.42,11.42,0,0,0-11.42,11.42,27,27,0,0,0,27,27h25A14.71,14.71,0,0,0,180,127.64a14.71,14.71,0,0,1,12.79-7.44h32.85A5.08,5.08,0,0,0,230.35,113.2Z" fill="url(#m)"/></svg>