<svg xmlns="http://www.w3.org/2000/svg" xmlns:xlink="http://www.w3.org/1999/xlink" viewBox="0 0 512 512"><defs><linearGradient id="a" x1="352.68" y1="489.09" x2="178.77" y2="315.19" gradientUnits="userSpaceOnUse"><stop offset="0" stop-color="#7f4d05"/><stop offset="1" stop-color="#773a04"/></linearGradient><linearGradient id="b" x1="378.4" y1="47.84" x2="146.57" y2="279.68" gradientUnits="userSpaceOnUse"><stop offset="0" stop-color="#565656"/><stop offset="1" stop-color="#141414"/></linearGradient><linearGradient id="c" x1="360.85" y1="53.43" x2="132.64" y2="281.64" gradientUnits="userSpaceOnUse"><stop offset="0" stop-color="#f4f4f4"/><stop offset="1" stop-color="#e0e0e0"/></linearGradient><linearGradient id="d" x1="413.51" y1="106.09" x2="185.3" y2="334.3" xlink:href="#c"/><linearGradient id="e" x1="332.14" y1="24.71" x2="103.92" y2="252.93" xlink:href="#c"/><linearGradient id="f" x1="372.82" y1="65.4" x2="144.61" y2="293.61" xlink:href="#c"/><linearGradient id="g" x1="401.54" y1="94.11" x2="173.33" y2="322.33" xlink:href="#c"/><linearGradient id="h" x1="320.17" y1="12.74" x2="91.95" y2="240.95" xlink:href="#c"/><linearGradient id="i" x1="360.85" y1="53.42" x2="132.64" y2="281.64" xlink:href="#c"/><linearGradient id="j" x1="413.5" y1="106.07" x2="185.29" y2="334.29" xlink:href="#c"/><linearGradient id="k" x1="332.14" y1="24.71" x2="103.92" y2="252.93" xlink:href="#c"/></defs><title>Icon</title><path d="M180.05,296.26l3.82,44.22h0L345.3,501.9a14.28,14.28,0,0,0,20.2,0h0a14.28,14.28,0,0,0,0-20.2Z" fill="url(#a)"/><path d="M397.82,150.48c-16.08,4.11-32.17,8.23-52.37,28.43-9.63,9.63-30.39,4.88-34.45,13.09-4.45,9,8.18,30.86,6,39.27-4.11,16.08-8.23,32.17-28.43,52.36-8.14,8.14-34.52-.6-41.6,3.37-10.47,5.87-1.16,22.6-10.76,25.06-16.08,4.11-32.17,8.23-52.36,28.42L143.19,299.8,135,275l-32.49-15.89L61.82,218.43C82,198.23,98.1,194.12,114.18,190c11-2.81,30.53,6.91,42.82-1,5.72-3.69,3.13-21,9.55-27.42,20.2-20.2,24.31-36.28,28.42-52.36,2.56-10,19.57-4.2,26-15.22,3.9-6.66-5.21-29.53,2.4-37.14,20.2-20.2,36.28-24.31,52.36-28.42s93,12.26,93,12.26L409.5,81.38S413.9,146.37,397.82,150.48Z" fill="url(#b)"/><path d="M195.56,271.37h0c-16.09,4.11-32.17,8.22-52.37,28.42l-40.68-40.68h0c20.2-20.2,36.28-24.31,52.36-28.42h0Z" fill="url(#c)"/><path d="M247.93,242.95l40.68,40.69c-20.2,20.2-36.29,24.31-52.37,28.43l-40.67-40.68c16.08-4.11,32.15-8.23,52.35-28.43Z" fill="url(#d)"/><path d="M207.24,202.26h0C187,222.46,171,226.58,154.88,230.7h0L114.19,190c16.09-4.12,32.16-8.23,52.36-28.43h0Z" fill="url(#e)"/><path d="M235.66,149.91l40.69,40.68c-4.11,16.08-8.23,32.16-28.42,52.36l-40.69-40.69C227.43,182.06,231.55,166,235.66,149.91Z" fill="url(#f)"/><path d="M304.77,138.23l40.68,40.68c-20.2,20.2-24.31,36.29-28.42,52.37l-40.69-40.69C280.46,174.51,284.58,158.43,304.77,138.23Z" fill="url(#g)"/><path d="M223.4,56.85l40.68,40.69c-20.2,20.2-24.31,36.27-28.43,52.36L195,109.22C199.09,93.13,203.2,77.05,223.4,56.85Z" fill="url(#h)"/><path d="M316.45,69.11l40.68,40.68C341,113.91,325,118,304.77,138.22h0L264.08,97.54C284.28,77.33,300.37,73.22,316.45,69.11Z" fill="url(#i)"/><path d="M409.5,81.38l40.68,40.68c-20.21,20.2-36.28,24.31-52.36,28.43L357.14,109.8h0C373.22,105.69,389.3,101.57,409.5,81.38Z" fill="url(#j)"/><path d="M328.13,0l40.68,40.68C348.61,60.88,332.54,65,316.45,69.11L275.77,28.43c16.08-4.11,32.16-8.22,52.36-28.43h0Z" fill="url(#k)"/></svg>