<svg xmlns="http://www.w3.org/2000/svg" xmlns:xlink="http://www.w3.org/1999/xlink" viewBox="0 0 512 512"><defs><linearGradient id="a" x1="199.67" y1="26.69" x2="199.67" y2="191.29" gradientUnits="userSpaceOnUse"><stop offset="0" stop-color="#f4f4f4"/><stop offset="1" stop-color="#e0e0e0"/></linearGradient><linearGradient id="b" x1="280.67" y1="198.07" x2="280.67" y2="302.88" xlink:href="#a"/><linearGradient id="c" x1="312.56" y1="310.45" x2="312.56" y2="370.49" gradientUnits="userSpaceOnUse"><stop offset="0" stop-color="#7f4d05"/><stop offset="1" stop-color="#773a04"/></linearGradient><linearGradient id="d" x1="82.61" y1="302.07" x2="82.61" y2="405.88" xlink:href="#c"/><linearGradient id="e" x1="440.76" y1="262.35" x2="440.76" y2="320.03" xlink:href="#c"/><linearGradient id="f" x1="127.74" y1="311.01" x2="127.74" y2="433.32" gradientUnits="userSpaceOnUse"><stop offset="0" stop-color="#1cd320"/><stop offset="1" stop-color="#3c9127"/></linearGradient><linearGradient id="g" x1="256" y1="354.14" x2="256" y2="494.34" xlink:href="#f"/><linearGradient id="h" x1="82.5" y1="92.62" x2="82.5" y2="316.16" xlink:href="#f"/><linearGradient id="i" x1="312.5" y1="186.9" x2="312.5" y2="337.63" xlink:href="#f"/><linearGradient id="j" x1="440.5" y1="69.32" x2="440.5" y2="277.19" xlink:href="#f"/></defs><title>Icon</title><path d="M68.33,157.13a59.87,59.87,0,0,1,59.88-59.89h1.91a70.1,70.1,0,0,1,139.08,0h1.91A59.87,59.87,0,0,1,331,157.12Z" fill="url(#a)"/><path d="M197,281.13A38.12,38.12,0,0,1,235.17,243h1.22a44.64,44.64,0,0,1,88.56,0h1.22a38.12,38.12,0,0,1,38.13,38.13Z" fill="url(#b)"/><path d="M312.56,363.09a8.3,8.3,0,0,1-8.3-8.3V323.67a8.3,8.3,0,1,1,16.6,0v31.12A8.3,8.3,0,0,1,312.56,363.09Z" fill="url(#c)"/><path d="M82.61,393.09a14.36,14.36,0,0,1-14.36-14.36V324.92a14.36,14.36,0,0,1,28.71,0v53.82A14.35,14.35,0,0,1,82.61,393.09Z" fill="url(#d)"/><path d="M440.76,345.65a14.35,14.35,0,0,1-14.36-14.36v-61.5a14.36,14.36,0,0,1,28.71,0v61.5A14.36,14.36,0,0,1,440.76,345.65Z" fill="url(#e)"/><path d="M25.36,503.42A14.35,14.35,0,0,1,11,489.06v-123A14.35,14.35,0,0,1,25.36,351.7H42.24a400.85,400.85,0,0,1,178.33,42.09l6.16,3.08C293.23,430.1,161.07,503.42,25.36,503.42Z" fill="url(#f)"/><path d="M486.64,503.42H25.36a14.36,14.36,0,0,1,0-28.71H39.64A248.13,248.13,0,0,0,215.1,402a276.83,276.83,0,0,1,195.76-81.09h75.79A14.36,14.36,0,0,1,501,335.3V489.06A14.35,14.35,0,0,1,486.64,503.42Z" fill="url(#g)"/><path d="M138.35,258c0,58.27-25,71-55.85,71s-55.85-12.76-55.85-71,25-140,55.85-140S138.35,199.71,138.35,258Z" fill="url(#h)"/><path d="M344.8,285c0,33.7-14.46,41.07-32.3,41.07s-32.3-7.38-32.3-41.07,14.46-81,32.3-81S344.8,251.26,344.8,285Z" fill="url(#i)"/><path d="M496.35,205c0,58.27-25,71-55.85,71s-55.85-12.76-55.85-71,25-140,55.85-140S496.35,146.71,496.35,205Z" fill="url(#j)"/></svg>