<svg xmlns="http://www.w3.org/2000/svg" xmlns:xlink="http://www.w3.org/1999/xlink" viewBox="0 0 512 512"><defs><linearGradient id="a" x1="329.43" y1="411.28" x2="270.2" y2="294.39" gradientUnits="userSpaceOnUse"><stop offset="0" stop-color="#ffc8af"/><stop offset="1" stop-color="#c6907b"/></linearGradient><linearGradient id="b" x1="119.61" y1="376.31" x2="214.46" y2="285.49" xlink:href="#a"/><linearGradient id="c" x1="376.01" y1="-4.32" x2="341.71" y2="91.72" gradientTransform="translate(195.43 -230.77) rotate(47.82)" xlink:href="#a"/><linearGradient id="d" x1="322.66" y1="-4.17" x2="394.37" y2="-4.17" gradientTransform="translate(195.43 -230.77) rotate(47.82)" gradientUnits="userSpaceOnUse"><stop offset="0" stop-color="#565656"/><stop offset="1" stop-color="#141414"/></linearGradient><linearGradient id="e" x1="357.56" y1="325.01" x2="243.66" y2="238.35" gradientTransform="matrix(1, 0, 0, 1, 0, 0)" xlink:href="#d"/><linearGradient id="f" x1="272.4" y1="204.59" x2="166.55" y2="380.39" gradientTransform="matrix(1, 0, 0, 1, 0, 0)" xlink:href="#d"/><linearGradient id="g" x1="227.71" y1="124.87" x2="362.09" y2="124.87" gradientTransform="translate(102.07 -135.78) rotate(27.14)" xlink:href="#a"/><linearGradient id="h" x1="244.16" y1="87.95" x2="305.21" y2="87.95" gradientTransform="translate(102.07 -135.78) rotate(27.14)" gradientUnits="userSpaceOnUse"><stop offset="0" stop-color="#0cadf4"/><stop offset="1" stop-color="#3060a5"/></linearGradient><linearGradient id="i" x1="30.11" y1="395.7" x2="89.42" y2="395.7" gradientUnits="userSpaceOnUse"><stop offset="0" stop-color="#f4f4f4"/><stop offset="1" stop-color="#e0e0e0"/></linearGradient><linearGradient id="j" x1="301.31" y1="471.02" x2="337.38" y2="471.02" xlink:href="#i"/><linearGradient id="k" x1="311.3" y1="51.1" x2="311.3" y2="229.23" xlink:href="#h"/><linearGradient id="l" x1="417.57" y1="176.4" x2="351.05" y2="106.82" gradientTransform="translate(244.11 -229.78) rotate(49.91)" xlink:href="#a"/><linearGradient id="m" x1="298.07" y1="82.54" x2="373.45" y2="198.84" gradientTransform="translate(244.11 -229.78) rotate(49.91)" xlink:href="#h"/><linearGradient id="n" x1="587.06" y1="1063.83" x2="638.75" y2="1063.83" gradientTransform="translate(91.14 -795.86) rotate(32.56)" xlink:href="#i"/><linearGradient id="o" x1="38.92" y1="364.53" x2="51.52" y2="528.79" gradientTransform="matrix(1, 0, 0, 1, 0, 0)" xlink:href="#d"/><linearGradient id="p" x1="609.74" y1="1021.28" x2="592.11" y2="1045.9" gradientTransform="translate(91.14 -795.86) rotate(32.56)" xlink:href="#d"/><linearGradient id="q" x1="199.58" y1="-709.88" x2="251.26" y2="-709.88" gradientTransform="translate(641.92 1184.13) rotate(-42)" xlink:href="#i"/><linearGradient id="r" x1="666.92" y1="-1338.93" x2="679.52" y2="-1174.67" gradientTransform="translate(1384.8 1483.85) rotate(-74.56)" xlink:href="#d"/><linearGradient id="s" x1="222.26" y1="-752.43" x2="204.63" y2="-727.8" gradientTransform="translate(641.92 1184.13) rotate(-42)" xlink:href="#d"/><linearGradient id="t" x1="424.37" y1="-8.32" x2="424.37" y2="16.61" gradientTransform="translate(19.15 42.02) rotate(-4.32)" xlink:href="#i"/><linearGradient id="u" x1="407.52" y1="3.84" x2="407.52" y2="28.77" gradientTransform="translate(19.15 42.02) rotate(-4.32)" xlink:href="#i"/></defs><title>Icon</title><path d="M366.84,351.15c1.48-8.4-3.58-20.72-20.73-43.67-31-41.53-75.77-112.81-94-110.61s-24.67,16.38-24.67,16.38S195.64,251.1,255,301.38c31.73,26.89,56.48,50.73,74.27,61.76a187.06,187.06,0,0,0-13.47,37.39c-2.87,11.92-6.25,27.36-9,42.76-3.79,21-6.43,41.89-5.07,53.6.6,5.39,2.07,8.84,4.68,9.47,3,.71,6.4-2.31,10-7.61,7.07-10.44,14.81-29.69,21-46.88,3.82-10.57,7.05-20.35,9.19-26.82C352.74,406.4,370.13,368.75,366.84,351.15Z" fill="url(#a)"/><path d="M299,215.14C291.44,198.46,276,196.58,276,196.58s-45.69-18.92-75.7,52.83c-18.24,43.6-35.45,77.43-38,97.17a187.88,187.88,0,0,0-40,10.82c-12.68,5-29.28,12.05-44.89,19.51-26.39,12.59-50,26.39-47,33.81,3.19,8,33.16,1.81,59.06-5.15,12.14-3.26,23.37-6.68,30.57-8.86,19.9-6,64.42-14.07,74-28.3,7.11-4.15,15.85-13.29,28-30.26C252.19,296,306.63,231.83,299,215.14Z" fill="url(#b)"/><path d="M466.46,45.74c.83,3.2-1.49,6.73-3.3,9.78-10.09,17-35.17,35.16-40.4,31.28C420.3,85,412.67,73.64,406.34,75S382,85.53,370.76,84.09l6-38.61,8.55-2.75c3.36-1.08,12.82-5,14.28-6.17.58-.47,1.18-.62,1.71-1,.68-.53,1.18-2.63,1.8-2.84,1-.36,2.29,1.57,3.13,1.92a16.24,16.24,0,0,0,4.28.77c2.88.29,5.79,1.23,8.67,1.35a66,66,0,0,0,9.5-.74c11.74-1.27,25.41-1.06,35.18,6.28A6.41,6.41,0,0,1,466.46,45.74Z" fill="url(#c)"/><path d="M466.34,47.6a10,10,0,0,1-1-.26c-2.6-.82-5.56-5-8.29-5.25-6.19-.59-7.2,7.74-13.24,5-5.85-2.67-11.7,11.73-16.49,9.13s9.52-13.54,5.85-16.4-11.67-4.63-17.82,4.83c-5.19,8-13.84-2.4-17.27-6.72a1.32,1.32,0,0,1-.32-.59,1.25,1.25,0,0,1,.17-.71,37,37,0,0,1,2.72-4.13,21.39,21.39,0,0,0,2-4.4c1.27-3.41,2.38-6.88,3.81-10.23,3-7,7.93-13.34,15.12-16.26,3.74-1.52,7.91-2.32,11.7-.65,1.43.63,2.2,1.51,3.54,1.37,1.16-.12,2.72-.95,3.94-1.19C451-.93,460,9.17,466.58,15.5c6.41,6.14,12.62,15.08,21,18.54-1.63,2.56-2.9,5.25-5.29,7.41C478.28,45.12,472,48.75,466.34,47.6Z" fill="url(#d)"/><path d="M350.49,308.48s-6.06,12-20.12,25.1c-5.2,4.83-10.13,9-14,12.16-4.68,3.77-7.76,6-7.76,6s-47.2-31.22-74.3-59c-2-2-3.9-4.1-5.67-6.1-25.51-29.07-18.44-60.89-18.44-60.89L237.1,204s49.72-15.87,53.95,11S350.49,308.48,350.49,308.48Z" fill="url(#e)"/><path d="M224.27,345.84s-43.93-21.65-54.8-37c-.89-1.26,54.28-111.19,55.57-111.89s40-8.19,40.54-8.3c1.25-.24,9.19,12.14,10,13.26L293.85,226c2.67,3.53,5.3,7.15,8,10.6-4,4.81-5.53,10.08-7.73,15.89l-.09.24a75.39,75.39,0,0,1-24.89,33.13L269,286c-6.49,5-10.7,11.94-15.39,18.55L239.09,325Z" fill="url(#f)"/><path d="M340,193.63c.65-2.15-12.25-18.28-18.44-19s-11.5,1.41-14.38-2.29c-2.08-2.67-21-40-33.5-61.46C297.91,104,329.65,90.67,350.06,78c13.46-8.33,22.45-15.57,16.18-29.5-7.44-16.52-38-2.91-38-2.91S295.23,59.4,269.71,73.47c-15.32,8.45-28.82,18.84-33.1,27.48a10.23,10.23,0,0,0-1.18,3.27,9,9,0,0,0-.2,2.65,24.4,24.4,0,0,0,2,8.55c6.81,17,33.83,42.66,46.74,56.23s16.78,18.52,20.37,26.46,11.92,13.23,19,7.72,5.85-8.73,9.39-9.29S339.4,195.78,340,193.63Z" fill="url(#g)"/><path d="M355.24,39.39s-31.41.15-84.36,30.74a98.21,98.21,0,0,0,7.06,24.21c5.62,13.22,10.55,17.71,10.55,17.71l26.81-9.58Z" fill="url(#h)"/><path d="M89.42,405.56c-25.9,7-55.87,13.2-59.06,5.15-2.93-7.42,20.63-21.22,47-33.81Z" fill="url(#i)"/><path d="M337.38,451.87c-6.21,17.18-14,36.44-21,46.88l-14.68-1.85c-1.36-11.71,1.27-32.6,5.07-53.6Z" fill="url(#j)"/><path d="M320.89,224.95c19.89-29.2,56.78-84.53,67.07-108,14.3-32.66,7.54-58.85-2.66-68.95s-25-15.93-48.58-7.27-33.1,48.35-39.48,69.92c-3.9,13.18-28.56,40.52-46.6,59.93C243.51,176.82,236.75,183,233,187c-10.36,11.11-21.17,12.4-19.51,14.74,4.46,6.3,25.81-8.91,75.07,46.31,10.28,11.53,18,4.92,18,4.92S315.3,233.13,320.89,224.95Z" fill="url(#k)"/><path d="M451.82,210c.72-9.62-2.73-11-.62-14.2s4.23-5.89,3-8-23.43-3.44-28.47,1-7.19,10.19-12.22,9.82c-3.56-.27-45.51-11.72-71.78-17.4,12.69-21.11,26.06-50.15,32.36-71.94,4.4-15.21,6.21-26.61-7.78-32.73-16.6-7.26-30.1,23.29-30.1,23.29s-15.28,32.39-24.77,59.95c-5.66,16.43-8.7,33.09-6.18,42.41a10.84,10.84,0,0,0,2.2,4.63l.15.18c1.95,2.37,5.12,4.52,9.92,6.3,18.45,6.83,58.46,3.85,78.61,3.37s26.9,0,35.82,2.88S451.1,219.59,451.82,210Z" fill="url(#l)"/><path d="M308.14,139.9c0-.49,26.62-51.13,35.8-62.68,8-10.07,29.5-11.65,36.83-7.84C399,78.85,395.72,97.44,394,105.83s-34.89,60.48-34.89,60.48-12.71-4.43-27.35-10.89A83.55,83.55,0,0,1,308.14,139.9Z" fill="url(#m)"/><path d="M28.17,397.69l-2.11.39a2.06,2.06,0,0,0-1.67,2.22C26.65,422.91,31,442.92,37.84,460a3.4,3.4,0,0,0,4.2,2l4.74-1.51Z" fill="url(#n)"/><path d="M47.67,392c-6.75.31-19.55,4.35-19.5,5.69.07,1.6,6.53,57.37,15.25,62.39,5.25,3,6.34-5.63,8.46-18.22L56.15,416C47.86,408.81,41,395.89,47.67,392Z" fill="url(#o)"/><path d="M43.33,392.53c-6.79,1.21-15.2,4.07-15.16,5.16,0,.46.56,5.33,1.52,12.16C37.14,408.53,41.73,402.82,43.33,392.53Z" fill="url(#p)"/><path d="M300.84,503.74l-.19,2.14a2.06,2.06,0,0,0,1.7,2.2c22.39,3.84,42.86,4.94,61.14,2.93a3.4,3.4,0,0,0,3-3.53l-.19-5Z" fill="url(#q)"/><path d="M300.54,483.43c-1.49,6.59-1,20,.29,20.31,1.56.36,57,9,64.2,1.91,4.31-4.26-3.74-7.61-15.32-13l-23.81-11C316.8,487.72,302.52,490.9,300.54,483.43Z" fill="url(#r)"/><path d="M299.9,487.76c-.64,6.86-.13,15.74.94,16,.45.1,5.28.88,12.13,1.77C313.67,498,309.39,492,299.9,487.76Z" fill="url(#s)"/><path d="M438.88,26.67h0A6.62,6.62,0,0,1,437,19.41l3.67-10.18A1.77,1.77,0,0,1,443.86,9L449,18.51a6.62,6.62,0,0,1-.8,7.46h0A6.62,6.62,0,0,1,438.88,26.67Z" fill="url(#t)"/><path d="M423,40.07h0a6.62,6.62,0,0,1-1.91-7.26l3.67-10.18a1.77,1.77,0,0,1,3.23-.24l5.15,9.52a6.62,6.62,0,0,1-.8,7.46h0A6.62,6.62,0,0,1,423,40.07Z" fill="url(#u)"/></svg>