<svg xmlns="http://www.w3.org/2000/svg" xmlns:xlink="http://www.w3.org/1999/xlink" viewBox="0 0 512 512"><defs><linearGradient id="a" x1="376.3" y1="62.23" x2="252" y2="116.02" gradientUnits="userSpaceOnUse"><stop offset="0" stop-color="#ffc8af"/><stop offset="1" stop-color="#c6907b"/></linearGradient><linearGradient id="b" x1="376.01" y1="61.56" x2="251.71" y2="115.35" xlink:href="#a"/><linearGradient id="c" x1="163.95" y1="434.91" x2="227.02" y2="293.14" xlink:href="#a"/><linearGradient id="d" x1="190.26" y1="299.32" x2="235.89" y2="299.32" gradientUnits="userSpaceOnUse"><stop offset="0" stop-color="#565656"/><stop offset="1" stop-color="#141414"/></linearGradient><linearGradient id="e" x1="288.69" y1="405.24" x2="225.01" y2="312.13" xlink:href="#a"/><linearGradient id="f" x1="188.93" y1="275.21" x2="289.4" y2="275.21" xlink:href="#d"/><linearGradient id="g" x1="248.14" y1="-21.71" x2="248.14" y2="140.83" gradientUnits="userSpaceOnUse"><stop offset="0" stop-color="#f4f4f4"/><stop offset="1" stop-color="#e0e0e0"/></linearGradient><linearGradient id="h" x1="215.36" y1="97.8" x2="238.56" y2="97.8" xlink:href="#a"/><linearGradient id="i" x1="280.03" y1="33.15" x2="214.09" y2="89.27" xlink:href="#a"/><linearGradient id="j" x1="221.26" y1="217.6" x2="258.66" y2="98.67" gradientUnits="userSpaceOnUse"><stop offset="0" stop-color="#f71111"/><stop offset="1" stop-color="#f2aa0a"/></linearGradient><linearGradient id="k" x1="307.61" y1="-35.37" x2="178.2" y2="133.82" xlink:href="#d"/><linearGradient id="l" x1="312.83" y1="-31.37" x2="183.43" y2="137.81" xlink:href="#d"/><linearGradient id="m" x1="389.71" y1="138.68" x2="198.88" y2="130.58" xlink:href="#a"/><linearGradient id="n" x1="195.62" y1="107.49" x2="357.53" y2="191.19" xlink:href="#j"/></defs><title>Icon</title><path d="M360.54,61.58c2.11,5.85-3.53,8.84-3.53,8.84L345.72,76C340.94,82.62,332,86.49,332,86.49L296.43,118c-9,5.2-21.44,8.67-33.6,11a286.39,286.39,0,0,1-31.26,4,12.87,12.87,0,1,1-1.28-25.7l33.22-1,18.49-.53,43.42-27.38c11.46-25.7,15.1-21.43,15.1-21.43,1,.92-1.64,5.09-3.12,7.21,5.62-7.47,16.29-8.35,16.29-8.35,4.74-.34,2,3,2,3-4.86.81-10.5,5.51-10.5,5.51,4.24-3.06,9.69-4.05,12.53-4.35A2.69,2.69,0,0,1,360.54,61.58Z" fill="url(#a)"/><path d="M263.51,106.22c-.22,7.08-.46,15.36-.67,22.74a286.39,286.39,0,0,1-31.26,4,12.87,12.87,0,1,1-1.28-25.7Z" fill="url(#b)"/><path d="M153.44,497.55a33.51,33.51,0,0,1,3,5.27,17.4,17.4,0,0,0,8.54,8.77c2.94,1.33,6.38-.78,5.91-3.63-1.58-9.21-9.27-27-9.27-27l36.2-79.37,24.39-70.49,1.44-4.13,12.21-35.32-37.51-24.16s-2.86,28.8-7.24,42.53c-.31.94-.61,1.89-.89,2.86-11.73,37.9-16.4,83.67-16.4,83.67C157.38,416.77,152.39,481,152.39,481,147.29,487.21,150.92,494.11,153.44,497.55Z" fill="url(#c)"/><path d="M190.26,312.9l32,18.23,1.44-4.13,12.21-35.32-37.51-24.16s-2.86,28.8-7.24,42.53C190.84,311,190.54,311.93,190.26,312.9Z" fill="url(#d)"/><path d="M212.58,298.52l40,23.3,46.91,27.33c-19.81,3.47-44.33,33.65-69.22,52.29,0,0-14.59-6.52-15.45,7.35,0,0,1.36,11.79,3.38,21.72,2.44,12,8.41,19.78,10.88,12.37l4-29.68,91.33-41a22.6,22.6,0,0,0,11.49-29.07c-5.38-12.79-18.06-31.32-46.5-56.26-9.27-8.13-20.22-17-33.12-26.49l0-28.1-55.46-3.66S167.44,271.47,212.58,298.52Z" fill="url(#e)"/><path d="M212.58,298.52l40,23.3c12-11.24,29.16-27.66,36.84-35-6.18-5.42-13.11-11.15-20.87-17.19a31.81,31.81,0,0,1-12.27-25.05V232.27l-55.46-3.66S167.44,271.47,212.58,298.52Z" fill="url(#f)"/><path d="M340.51,131.37c-2.92.82-3.08-.28-5.18-1.56-4.62-2.82-6.61-.5-11.54,1-9.33,2.85-19.14,3.11-28.74,4.46-19.52,2.73-39.14,6.63-59.18,4.89-11.18-1-22-3.6-33.09-4.8-3.25-.35-6.52-1-9.8-1.54-5.52-1-11.08-1.74-16.72-.73-4.49.8-9.5,3.84-14.22,2.56a6.23,6.23,0,0,1-4.82-4.93c-.41-3.17,1.81-3.8,3.36-6.09,3-4.38.14-8.83-1.67-13.29a84.54,84.54,0,0,1-4.18-13.67c-2-9.48-2.94-20.88-.41-30.45,2.17-8.19,6.57-16.6,7.74-24.89a81.17,81.17,0,0,0,.35-11.17l.74,1.11c0-6.67-4-21.36,1.31-26.38,4.06-3.88,11.13,1.16,15,3.1,4.07,2,8.3,1.49,12.8,1.49,11.75,0,24.06-3.72,35.54-6.2,16.39-3.52,34.76-5.8,51.48-3.08a97.58,97.58,0,0,1,19.44,5.12l2.67,1a31.15,31.15,0,0,0,9.08,2.05c4.67.22,8.87-.07,13.16-1.84,2.57-1.05,11.14-6.36,12.4-1.41.85,3.31-4.49,9-4.81,12.85a55.57,55.57,0,0,0,.38,14.42c1.91,10.86,8.16,20.45,9.61,31.4a106.52,106.52,0,0,1-.68,31.52c-.9,4.83-2.45,9.81-2.95,14.64-.71,6.95,3.39,9.31,5.33,15.2C344,129.42,343.63,130.5,340.51,131.37Z" fill="url(#g)"/><path d="M178.28,41.32c7.84,6.44,21.32,1.16,29.77-1.35,11.31-3.35,23.52-6.68,33.58-12.9C229.09,38,181,68.29,173.94,38.73c1.74,1.4,3,3,5.24,3.49" fill="#f7eef0"/><path d="M177.38,66.53c17.28,10.06,41.41-3.41,57.53-10-6,4.94-58.93,32.17-58,10.87" fill="#f7eef0"/><path d="M209.8,83.19c-5,2.75-10.22,6-15.1,9.23-3.25,2.15-11.8,6.14-12.33,10.07,7-.32,31.31-11.26,30.52-19.25-2.63-.43-7.6,1.66-8.94,4" fill="#f7eef0"/><path d="M215.36,107.1l4.7-36.8,17.78,14.25c-2,9.13.72,40.75.72,40.75Z" fill="url(#h)"/><path d="M266.83,56.63a54.42,54.42,0,0,1-2.15,10.78,6.09,6.09,0,0,0,.24,4.77l3.69,7.27a1.8,1.8,0,0,1-.49,2.25,7,7,0,0,1-4.21,1.65s-3.39,8.56-10.19,13.81a10.87,10.87,0,0,1-7.57,2.13c-28.9-2.48-37.54-18.41-31.2-46.06a24.48,24.48,0,0,1,10.21-14.81c8.12-5.47,23.34-12.87,34.94-1.63A23.74,23.74,0,0,1,266.83,56.63Z" fill="url(#i)"/><path d="M195.14,237.92c25.32,4.63,53.72,7.69,63.81,6.29,0,0,.42-53.36,9.32-66.2a62.69,62.69,0,0,0,4.84-7.47c6.64-13.36-34.56-56-34.56-56l-22.77-10.83s-5.45,10-11.49,22.13c-4.55,9.18-1.54,24.26,2.23,36.28,4.26,13.48,2.23,27.81-.74,41.63C204.39,210.21,195.14,237.92,195.14,237.92Z" fill="url(#j)"/><path d="M209.26,69.37c2.49,5.75,8,23.35,8,23.35a38.51,38.51,0,0,0,6.9-1.54c4.69-1.54,10.27-4.49,11.22-9.93a9,9,0,0,0,.14-2.66,1.17,1.17,0,0,1-.31,0,8.73,8.73,0,0,1-5.09-1.83,9.63,9.63,0,0,1-2.32-2.83,6.1,6.1,0,0,1,1.54-7.61c2.17-1.8,6-2.23,8.1,0,1.83,2.06,1.49,5.46,2.69,7.61.17-2.4,2-7.64,3.72-9.33,3.63-3.6,9.81-3.06,12.33-8.24.14,2.12-.77,3.95-.77,6,1.46-.31,2.83-.6,4.18-1l-1.29,1.2c-.63,2.83,8.38,1.75,10,1,5.89-2.57,8.24-9.78,7.52-15.71-1.6-13.7-18.34-20.94-30.33-22-6.29-.54-13.59-1.06-19.57,1.37-4.49,1.83-9,6.64-12,10.3a36.66,36.66,0,0,0-7,14.51C205.31,58,206.85,63.85,209.26,69.37Z" fill="url(#k)"/><path d="M222.38,33.13c-8.77,13.6-28.55,11.82-40.5,21.2C172.35,61.82,177,67,179.71,76.48c2.56,8.86-2.61,13.93-10.17,18-7.27,3.94-17.41,5.56-22.24,13-5.78,8.88-2.05,17.4,4.36,24.3,9.07,9.76,32.93,3.34,37.49,17.54,2.24,7-1.64,14.74-.56,22.09,1.29,8.76,8.59,20.68,16.72,24.49-1.85-6.54-7.06-15.27-6-22.78,1.13-7.8,13.26-13.72,17.44-21s3.65-17.75,2.46-25.75c-1.1-7.36-1.08-15.81,9.37-15,8.49.69,16.57,9.05,24.19,12.24-3.67-2.54-7.43-5.29-10.09-9.2s-3.26-8.95-6-12.61c-2.5-3.38-5.76-4.78-7.53-8.71-1.53-3.4-1.07-7.66-2-11.23-2.48-9.09-3.36-14.27-1.16-23.45.66-2.74,2.36-7.32.61-9.94s-7-3.52-9.6-5.75" fill="url(#l)"/><path d="M367.53,139.39c-1.12,7.1-7.5,6.8-7.5,6.8l-12.56-1c-7.47,3.85-17.14,2.52-17.14,2.52l-46.58,10.82c-10.39,0-22.89-3.82-34.56-8.59a267,267,0,0,1-29-14.27c-5.26-3-8.1-9.69-7-16.36,1.72-9.82,11.16-14.93,18.77-10.15l29.21,18.38,16.25,10.25,51.3-2.12C351.59,116.6,352.59,123,352.59,123c.43,1.53-4,4.15-6.32,5.41,8.61-4.21,18.28,1.13,18.28,1.13,4.26,2.42.2,4.15.2,4.15-4.61-2-11.84-.6-11.84-.6,5.21-.6,10.41,1.59,13,3A3.24,3.24,0,0,1,367.53,139.39Z" fill="url(#m)"/><path d="M263.82,124.39c-3.75,7-11.56,21.21-15.45,28.47-11.39-4.68-21.14-13.2-28.18-17.18-5.26-3-8.1-9.69-7-16.36,1.72-9.82,11.16-14.93,18.77-10.15Z" fill="url(#n)"/></svg>