<svg xmlns="http://www.w3.org/2000/svg" xmlns:xlink="http://www.w3.org/1999/xlink" viewBox="0 0 512 512"><defs><linearGradient id="a" x1="350.56" y1="422.27" x2="297.8" y2="318.14" gradientUnits="userSpaceOnUse"><stop offset="0" stop-color="#ffc8af"/><stop offset="1" stop-color="#c6907b"/></linearGradient><linearGradient id="b" x1="163.64" y1="391.12" x2="248.14" y2="310.21" xlink:href="#a"/><linearGradient id="c" x1="334.21" y1="30.66" x2="303.65" y2="116.22" xlink:href="#a"/><linearGradient id="d" x1="286.68" y1="30.79" x2="350.57" y2="30.79" gradientUnits="userSpaceOnUse"><stop offset="0" stop-color="#565656"/><stop offset="1" stop-color="#141414"/></linearGradient><linearGradient id="e" x1="375.63" y1="345.41" x2="274.16" y2="268.21" xlink:href="#d"/><linearGradient id="f" x1="299.76" y1="238.14" x2="205.46" y2="394.75" xlink:href="#d"/><linearGradient id="g" x1="212.08" y1="157.01" x2="331.8" y2="157.01" xlink:href="#a"/><linearGradient id="h" x1="226.74" y1="124.12" x2="281.12" y2="124.12" gradientUnits="userSpaceOnUse"><stop offset="0" stop-color="#0cadf4"/><stop offset="1" stop-color="#3060a5"/></linearGradient><linearGradient id="i" x1="83.91" y1="408.39" x2="136.74" y2="408.39" gradientUnits="userSpaceOnUse"><stop offset="0" stop-color="#f4f4f4"/><stop offset="1" stop-color="#e0e0e0"/></linearGradient><linearGradient id="j" x1="325.51" y1="475.49" x2="357.65" y2="475.49" xlink:href="#i"/><linearGradient id="k" x1="285.88" y1="94.96" x2="285.88" y2="253.65" xlink:href="#h"/><linearGradient id="l" x1="383.28" y1="170.09" x2="324.02" y2="108.1" xlink:href="#a"/><linearGradient id="m" x1="276.83" y1="86.46" x2="343.97" y2="190.08" xlink:href="#h"/><linearGradient id="n" x1="75.16" y1="434.15" x2="121.21" y2="434.15" gradientTransform="translate(239.32 20.74) rotate(32.56)" xlink:href="#i"/><linearGradient id="o" x1="91.75" y1="380.62" x2="102.98" y2="526.96" xlink:href="#d"/><linearGradient id="p" x1="95.37" y1="396.24" x2="79.66" y2="418.18" gradientTransform="translate(239.32 20.74) rotate(32.56)" xlink:href="#d"/><linearGradient id="q" x1="320.13" y1="360.38" x2="366.17" y2="360.38" gradientTransform="translate(-141.13 468.24) rotate(-42)" xlink:href="#i"/><linearGradient id="r" x1="337.92" y1="450.29" x2="349.14" y2="596.63" gradientTransform="translate(-224.84 693.4) rotate(-74.56)" xlink:href="#d"/><linearGradient id="s" x1="340.33" y1="322.48" x2="324.63" y2="344.42" gradientTransform="translate(-141.13 468.24) rotate(-42)" xlink:href="#d"/></defs><title>Icon</title><path d="M383.89,368.71c1.31-7.48-3.19-18.46-18.47-38.9-27.66-37-67.5-100.5-83.71-98.54s-22,14.59-22,14.59-28.36,33.71,24.5,78.51c28.26,24,50.32,45.2,66.17,55a166.65,166.65,0,0,0-12,33.31c-2.55,10.62-5.57,24.38-8,38.09-3.38,18.71-5.72,37.32-4.51,47.75.54,4.8,1.84,7.88,4.17,8.43,2.65.63,5.7-2.06,8.91-6.78,6.3-9.3,13.2-26.45,18.73-41.76,3.4-9.41,6.28-18.13,8.18-23.9C371.33,417.92,386.83,384.38,383.89,368.71Z" fill="url(#a)"/><path d="M323.49,247.54C316.73,232.67,302.94,231,302.94,231s-40.7-16.85-67.44,47.06c-16.25,38.84-31.58,69-33.82,86.56A167.38,167.38,0,0,0,166,374.26c-11.3,4.49-26.09,10.74-40,17.38-23.51,11.22-44.51,23.51-41.9,30.12,2.84,7.17,29.54,1.61,52.61-4.59,10.81-2.9,20.82-6,27.24-7.89,17.73-5.38,57.39-12.54,65.9-25.21,6.34-3.7,14.12-11.84,25-27C281.75,319.56,330.26,262.4,323.49,247.54Z" fill="url(#b)"/><path d="M343.91,21c2.61,1.37,3.55,5,4.49,8,5.22,16.86,2.18,44.25-3.52,45.38-2.69.53-14.73-1.21-17.59,3.8s-7.63,22.35-15.3,28.91L290.1,80l3.3-7.29c1.3-2.87,4.36-11.46,4.47-13.11,0-.66.3-1.15.34-1.74.06-.77-1-2.35-.8-2.88.38-.9,2.4-.57,3.14-.92a14.47,14.47,0,0,0,3.07-2.36c1.92-1.73,4.28-3.09,6.08-4.92a58.82,58.82,0,0,0,5.2-6.72c6.18-8.51,14.5-17.41,25.19-19.47A5.71,5.71,0,0,1,343.91,21Z" fill="url(#c)"/><path d="M345.06,22.17a8.91,8.91,0,0,1-.77.51c-2.1,1.22-6.62.68-8.43,2.33-4.09,3.73.8,9.38-4.62,11.72C326,39,332,51.47,327.4,53.08s-3.24-14.38-7.33-13.67-10,4.93-7.47,14.65c2.18,8.22-9.86,7.7-14.77,7.38a1.18,1.18,0,0,1-.59-.14,1.12,1.12,0,0,1-.37-.54,33,33,0,0,1-1.1-4.27,19.05,19.05,0,0,0-1.68-4c-1.49-2.88-3.12-5.69-4.47-8.64-2.81-6.14-4.06-13.21-1.69-19.71,1.23-3.38,3.2-6.61,6.57-8.11,1.27-.57,2.31-.55,3-1.52s1-2.36,1.57-3.32c4.78-8,16.8-7.83,24.92-8.41,7.88-.56,17.5.69,24.83-2.81.72,2.61,1.73,5.05,1.73,7.92C350.56,12.8,349.18,19.15,345.06,22.17Z" fill="url(#d)"/><path d="M369.33,330.69s-5.4,10.7-17.92,22.36c-4.63,4.3-9,8-12.47,10.83-4.17,3.36-6.92,5.34-6.92,5.34s-42-27.81-66.19-52.56c-1.79-1.82-3.48-3.65-5.05-5.44C238.05,285.34,244.35,257,244.35,257l24-19.42s44.3-14.14,48.06,9.78S369.33,330.69,369.33,330.69Z" fill="url(#e)"/><path d="M256.88,364s-39.14-19.28-48.82-33c-.79-1.12,48.36-99.06,49.5-99.68s35.61-7.3,36.12-7.4c1.11-.22,8.19,10.81,9,11.82l16.24,21.46c2.38,3.14,4.73,6.37,7.17,9.45-3.59,4.28-4.93,9-6.89,14.16l-.08.22a67.17,67.17,0,0,1-22.18,29.52l-.16.12c-5.78,4.49-9.53,10.64-13.71,16.53l-12.94,18.21Z" fill="url(#f)"/><path d="M331.76,210.21c-.36-2-17.14-9.52-22.34-7.57s-8.55,5.79-12.33,4c-2.73-1.27-32.9-23.16-51.53-35.11,16.37-15.28,36.11-38.75,47.16-57.07,7.29-12.08,11.47-21.47.84-30-12.61-10.07-31.27,13.11-31.27,13.11S241.68,122,227.16,143.53c-8.71,12.92-15.19,26.65-15.08,35.24a9.12,9.12,0,0,0,.39,3.07,8,8,0,0,0,.92,2.19,21.73,21.73,0,0,0,5,6c12.29,10.68,44.16,20.07,59.9,25.59s20.83,7.86,26.9,12.7,14.83,5.64,18.2-1.6,1.09-9.3,3.67-11.18S332.12,212.18,331.76,210.21Z" fill="url(#g)"/><path d="M281.12,81.75s-24.84,12.88-54.38,58.65a87.49,87.49,0,0,0,15.44,16.32c9.83,8.19,15.56,9.75,15.56,9.75L275.09,148Z" fill="url(#h)"/><path d="M136.74,417.17c-23.07,6.2-49.77,11.76-52.61,4.59-2.61-6.61,18.38-18.9,41.9-30.12Z" fill="url(#i)"/><path d="M357.65,458.43c-5.53,15.31-12.43,32.46-18.73,41.76l-13.08-1.65c-1.21-10.43,1.13-29,4.51-47.75Z" fill="url(#j)"/><path d="M328.64,246.49c3.9-31.23,10.66-90.09,9.27-112.9C336,101.89,320,83.88,307.77,80s-26.3-2.47-41.47,14-6.59,51.78-2.88,71.47c2.27,12-6.18,43.74-12.58,66.45-3.11,7.87-6,15.51-7.29,20.18-3.7,13-11.75,18.43-9.48,19.62,6.1,3.18,16.84-17.55,78.33,6.21,12.84,5,16.23-3.4,16.23-3.4S327.53,255.26,328.64,246.49Z" fill="url(#k)"/><path d="M430.16,123.63c-6.15-6-9-4.43-10-7.73s-1.59-6.27-3.71-6.6-15.79,14-15.67,20,2.82,10.75-.32,14c-2.23,2.28-34.09,24.29-53,38.94-7.11-20.76-19.23-46.53-30.47-63.32-7.85-11.72-14.58-19.5-26.77-13.47-14.47,7.15-1.39,33.88-1.39,33.88s13.31,29,26.65,51.27c8,13.28,17.57,24.92,25.36,28.54a9.66,9.66,0,0,0,4.42,1.16h.21c2.73,0,6-.89,10-3.14,15.24-8.66,36.16-37.64,47.39-51.65s15.43-18.33,22.51-22.76S436.31,129.64,430.16,123.63Z" fill="url(#l)"/><path d="M300,181.36c-.35-.26-19.58-47.48-22.19-60.36-2.27-11.24,9-26.79,15.78-29.6,16.91-7,27.7,5.91,32.45,11.88s21.21,58.48,21.21,58.48-10.31,6.12-23.11,12.39A74.44,74.44,0,0,1,300,181.36Z" fill="url(#m)"/><path d="M82.18,410.16l-1.88.35a1.83,1.83,0,0,0-1.49,2c2,20.14,5.93,38,12,53.2a3,3,0,0,0,3.74,1.75l4.22-1.34Z" fill="url(#n)"/><path d="M99.55,405.09c-6,.28-17.42,3.87-17.37,5.07.06,1.43,5.81,51.11,13.59,55.58,4.68,2.69,5.65-5,7.53-16.24l3.81-23.06C99.72,420.07,93.61,408.56,99.55,405.09Z" fill="url(#o)"/><path d="M95.68,405.57c-6,1.08-13.55,3.62-13.51,4.6,0,.41.5,4.74,1.36,10.84C90.17,419.82,94.26,414.73,95.68,405.57Z" fill="url(#p)"/><path d="M325.09,504.64l-.17,1.91a1.83,1.83,0,0,0,1.51,2c19.95,3.42,38.18,4.4,54.47,2.61a3,3,0,0,0,2.68-3.14l-.17-4.43Z" fill="url(#q)"/><path d="M324.83,486.55c-1.33,5.87-.91,17.82.26,18.09,1.39.32,50.82,8,57.2,1.7,3.84-3.79-3.33-6.78-13.64-11.58l-21.22-9.81C339.32,490.37,326.59,493.2,324.83,486.55Z" fill="url(#r)"/><path d="M324.26,490.4c-.57,6.11-.11,14,.83,14.24.4.09,4.71.78,10.81,1.58C336.53,499.51,332.72,494.21,324.26,490.4Z" fill="url(#s)"/></svg>