<svg xmlns="http://www.w3.org/2000/svg" xmlns:xlink="http://www.w3.org/1999/xlink" viewBox="0 0 512 512"><defs><linearGradient id="a" x1="215.71" y1="345.07" x2="267.4" y2="241.7" gradientUnits="userSpaceOnUse"><stop offset="0" stop-color="#ffc8af"/><stop offset="1" stop-color="#c6907b"/></linearGradient><linearGradient id="b" x1="332.82" y1="46.52" x2="284.2" y2="131.48" xlink:href="#a"/><linearGradient id="c" x1="207.81" y1="267.88" x2="295.49" y2="267.88" gradientUnits="userSpaceOnUse"><stop offset="0" stop-color="#565656"/><stop offset="1" stop-color="#141414"/></linearGradient><linearGradient id="d" x1="322.56" y1="356.5" x2="220.47" y2="273.54" xlink:href="#a"/><linearGradient id="e" x1="227.87" y1="354.31" x2="273.99" y2="354.31" gradientUnits="userSpaceOnUse"><stop offset="0" stop-color="#f4f4f4"/><stop offset="1" stop-color="#e0e0e0"/></linearGradient><linearGradient id="f" x1="222.52" y1="261.35" x2="316.67" y2="261.35" xlink:href="#c"/><linearGradient id="g" x1="122.03" y1="458.27" x2="159.35" y2="458.27" xlink:href="#e"/><linearGradient id="h" x1="374.2" y1="169.74" x2="296.51" y2="170.65" xlink:href="#a"/><linearGradient id="i" x1="282.19" y1="-20.19" x2="282.19" y2="89.06" xlink:href="#c"/><linearGradient id="j" x1="286.87" y1="216.49" x2="286.87" y2="26.38" gradientUnits="userSpaceOnUse"><stop offset="0" stop-color="#f71111"/><stop offset="1" stop-color="#f2aa0a"/></linearGradient><linearGradient id="k" x1="217.56" y1="131.95" x2="275.26" y2="83.79" xlink:href="#a"/><linearGradient id="l" x1="241.21" y1="160.28" x2="298.91" y2="112.13" xlink:href="#a"/><linearGradient id="m" x1="273.54" y1="42.9" x2="273.54" y2="139.06" xlink:href="#j"/><linearGradient id="n" x1="296.61" y1="20.13" x2="306.42" y2="20.13" xlink:href="#j"/><linearGradient id="o" x1="113.17" y1="491.59" x2="157.04" y2="491.59" xlink:href="#e"/><linearGradient id="p" x1="115.02" y1="483.59" x2="157.12" y2="483.59" gradientUnits="userSpaceOnUse"><stop offset="0" stop-color="#0cadf4"/><stop offset="1" stop-color="#3060a5"/></linearGradient><linearGradient id="q" x1="132.42" y1="455.48" x2="117.46" y2="476.38" xlink:href="#p"/><linearGradient id="r" x1="209.71" y1="387.26" x2="253.58" y2="387.26" gradientTransform="translate(190.95 -63.99) rotate(26.01)" xlink:href="#e"/><linearGradient id="s" x1="211.56" y1="379.25" x2="253.66" y2="379.25" gradientTransform="translate(190.95 -63.99) rotate(26.01)" xlink:href="#p"/><linearGradient id="t" x1="228.96" y1="351.15" x2="214" y2="372.05" gradientTransform="translate(190.95 -63.99) rotate(26.01)" xlink:href="#p"/></defs><title>Icon</title><path d="M296.72,245.69c-7.25-14.17-20.09-16.89-20.09-16.89s-41-12.88-64.21,50.56c-15.92,43.59-31.2,76.29-28.94,91.9a161.89,161.89,0,0,0-20.7,25.15c-7.11,10.73-16.36,25.46-24.26,39.59-11.61,20.83-20.28,40.38-14.8,44,5.72,3.81,21.48-12,35.64-28.38,8.55-9.91,16.52-20,21.29-26.06,8.93-11.31,28.44-31.32,35.81-46.5,5-4.68,10.93-12.19,18.33-23.59C259.31,317.69,304,259.86,296.72,245.69Z" fill="url(#a)"/><path d="M358.56,52.24c-1.42,8.57-6.85,20.88-12,19.92s-11.67-2.64-16.2,7-8.78,17-8.78,17L294.75,81.8,300.62,78c4.53-5.59,12.9-25.27,12.9-25.27-3.5-3.32-7.53-7.78-7.69-12.9-.11-3.64,2.13-6,4.54-8.39a8.61,8.61,0,0,1,2-1.31c2.53-1.36,4.5-2.53,7.37-1.56,3.5,1.17,6.43,4,10.26,4a12.74,12.74,0,0,0,6.4-2.12c1.94-1.15,2.81-2.48,4.11-4.24,1.58-2.13,2.57-4.71,4.32-6.72,2.17-2.49,5.05-3.37,8.29-3.8a5.83,5.83,0,0,1,4.78,1.45C358.8,18,361.86,32.25,358.56,52.24Z" fill="url(#b)"/><path d="M239.86,223.64s-24.42,41.51-32,66.36c-.4,1.29,48.87,32,50.54,31.24s37.13-58.91,37.13-58.91l-20.2-47.8Z" fill="url(#c)"/><path d="M369,326.88h0c-2.11-6.86-8.88-15.91-23.19-29.65C313.39,266,265,211.27,249.72,215.72s-18.82,17.52-18.82,17.52-21.93,36.92,36,71.62c14,8.41,26.78,16.49,38.06,23.46h0c-10.92,3-24.52,7-37.5,11.38-15.59,5.27-30.27,11.14-38.25,16.43-4.38,2.9-6.73,5.63-6.08,8,.69,2.59,4.48,4,10.08,4.5,10.08,1,26.08-.72,40.78-2.85,11-1.58,21.31-3.42,27.85-4.6C322,357.6,369.6,355,370.7,339.35,371.13,333.13,370.27,329.27,369,326.88Z" fill="url(#d)"/><path d="M274,365.79c-14.7,2.13-30.7,3.83-40.78,2.85l-5.34-4.72,1.34-7.81c8-5.29,22.66-11.16,38.25-16.43Z" fill="url(#e)"/><path d="M237.78,221.68s-22.46,21.47-12.88,47.64,48.93,42.06,55.21,44.47,36.56-46.54,36.56-46.54l-18.68-19-30.37-39.47Z" fill="url(#f)"/><path d="M159.35,451.6C145.2,468,129.44,483.79,123.72,480c-5.48-3.62,3.19-23.16,14.8-44Z" fill="url(#g)"/><path d="M314.82,187s38-5,50.88-7.82,17.26-3.42,23.35-2.7,12.31-2.4,11.55-8.67-3.15-6.7-2.2-9,2-4.32.9-5.49-15.47.77-18.15,4.24-3.32,7.45-6.59,7.85-58.39-3.79-61.93-1.28S297.78,178.8,314.82,187Z" fill="url(#h)"/><path d="M355.61,10.09l.15.13c2.44,2.09,6.17,4.15,4.29,7.94-1.48,3-3.92,2.74-6.83,2.67a18.69,18.69,0,0,0-6.84.8c-3,1.08-4.7,3.73-5.82,6.54-1,2.54-2,6.07-4.42,7.63-2.05,1.31-3.8,1.5-5.25,3.61-.6.87-1.35,3-2.4,3.25-1.23-1.4-1.29-4.41-1.88-6.2-.65-2-2-4.18-4.3-4.55-3.13-.49-5.69,3.17-6.79,5.57-1.44,3.14-.19,5.14.36,8.25s-1.12,6.48-2.4,9.21c-.57,1.21-1.28,3-2.87,2.25a9.17,9.17,0,0,1-2.75-2.41c-2-2.28-2.69-5.48-3.26-8.39-.3-1.54-.53-3.09-.8-4.64s-.74-3.07-1-4.6a68.84,68.84,0,0,1-.91-9.56c0-1.15.28-1.11-.86-1.69a11.83,11.83,0,0,0-3-.7c-4.55-.86-8.5-.9-12.51,1.73a12.76,12.76,0,0,0-6,10.34c-.06,10.9,2.46,25.42-4.65,35-4.75,6.37-10.91,6.84-18,6.25-5.95-.49-9-.38-9.95,5.55s-.73,12.78-4.87,17.5-15,9.44-21.28,8.86c-7.76-.66-13.49-7.84-16.14-14.33-3.29-8.1,3.08-10.74,5.76-17.21,3.16-7.53-5.1-11.8-5.11-19.28,0-6,1.7-12.41,5.87-16.87a16.06,16.06,0,0,1,7.68-4.59c3.63-1,7.77.1,11.19-1.62,1.77-.89,3.08-2.47,4.59-3.75,3.76-3.17,8.34-4,13.11-3.57,4.55.42,9.45,1.58,13.35-1.54,6.36-5.08,8.54-14.14,16.5-17.17,6.9-2.63,15-.62,21.68,1.73,2.22.78,4.47,1.5,6.65,2.3.6.18,4.93-7.1,5.66-7.88a22.35,22.35,0,0,1,14-6.47C336.31-.93,347.53,3.24,355.61,10.09Z" fill="url(#i)"/><path d="M341.65,136c0,7.57-6.42,12.88-9.7,17-2.28,2.87-6.47,13.41-11.16,26.49-3.91,10.91-7.59,21.91-11.21,32.92-.81,2.46-1.33,5.43-2.51,7.73-.94,1.83-2.33,3.31-3.14,5.29a46.46,46.46,0,0,0-2.76,13c-.34,3.41-.68,8.27-1.82,11.32.09-.25-7.25-4.81-8-5.31a123.91,123.91,0,0,0-29-14.58,63.83,63.83,0,0,0-15-3.18,42.68,42.68,0,0,0-7.62,0c-2.55.26-5.05.87-7.63.69,1,.07,6.38-7.25,7.15-8.29a50.83,50.83,0,0,0,3-4.92q3.64-6.36,7.13-12.81a296.6,296.6,0,0,0,15-30.83A60.08,60.08,0,0,0,268,159.17c1.94-10.3,0-19.59-1.63-31.06-.41-2.92-.81-6-1.08-9.22-.17-1.77-.31-3.59-.36-5.48q-.22-3.81-.14-8c0-1.44.07-3,.17-4.57,1.48-26.65,34.73-28.28,34.73-28.28,11.83,2.51,17.2,2.8,26.46,20.12,2.42,4.53,5.12,10.2,7.59,16C338,119,341.65,129.83,341.65,136Z" fill="url(#j)"/><path d="M284.81,75.82h0Z" fill="url(#k)"/><path d="M288.95,90.73c-5-13.78-4.26-14.83-4.13-14.91-.31.14-25.15,11.69-44.26,23.25-16.1,9.73-29.36,22.28-24.61,29.27a25.06,25.06,0,0,0,1,4.95s29.06,25,39.79,32.65,14.07,10.57,17.6,15.58,10,7.56,14.16,2.81,2.88-6.81,5.26-7.67,4.53-1.42,4.69-3-10.9-11-15.27-10.68-7.77,2.5-10.25.33c-1.67-1.46-17.5-21.83-29-35.26,18.52-6,43.08-17.41,58.67-27.94C312.71,93.28,290.51,95,288.95,90.73Z" fill="url(#l)"/><path d="M292.76,73c-23.82,3.49-56.14,24.43-56.14,24.43.42.28,14.82,31.34,14.82,31.34L266,123.4s16.88-7.62,28.44-13.28c2.28-1.12,7.27-6.25,12-11.52a15.42,15.42,0,0,0-2.31-22.79h0A15.47,15.47,0,0,0,292.76,73Z" fill="url(#m)"/><polygon points="306.42 13.99 301.95 28.03 296.61 25.5 302.16 12.22 306.42 13.99" fill="url(#n)"/><path d="M115.06,471.24l-1.33,1.24a1.74,1.74,0,0,0-.18,2.35c11.94,15.14,24.23,27.45,36.89,36.57a2.89,2.89,0,0,0,3.9-.52l2.7-3.24Z" fill="url(#o)"/><path d="M126.41,458.27c-4.69,3.31-12,12-11.35,13,.78,1.12,30.87,38.06,39.41,37.66,5.13-.24,2-6.92-2.28-16.9l-8.77-20.47C134.23,470.2,123.41,464.1,126.41,458.27Z" fill="url(#p)"/><path d="M123.55,460.63c-4.3,4-9,9.85-8.49,10.61.22.32,2.83,3.55,6.64,8C126.43,474.89,127.11,468.72,123.55,460.63Z" fill="url(#q)"/><path d="M220.25,358.55l-1.74.53a1.74,1.74,0,0,0-1.19,2c4.1,18.84,9.74,35.29,17.13,49a2.89,2.89,0,0,0,3.73,1.25l3.85-1.73Z" fill="url(#r)"/><path d="M236.14,351.86c-5.66.92-16.07,5.56-15.89,6.69.21,1.35,11.06,47.74,18.9,51.13,4.72,2,4.8-5.36,5.36-16.18l1.1-22.24C237.93,366,230.89,355.79,236.14,351.86Z" fill="url(#s)"/><path d="M232.53,352.73c-5.6,1.68-12.43,4.9-12.28,5.82.06.38,1,4.44,2.46,10.11C228.86,366.81,232.18,361.56,232.53,352.73Z" fill="url(#t)"/></svg>