<svg xmlns="http://www.w3.org/2000/svg" xmlns:xlink="http://www.w3.org/1999/xlink" viewBox="0 0 512 512"><defs><linearGradient id="a" x1="256" y1="3.5" x2="256" y2="110.5" gradientUnits="userSpaceOnUse"><stop offset="0" stop-color="#565656"/><stop offset="1" stop-color="#141414"/></linearGradient><linearGradient id="b" x1="256" y1="75.52" x2="256" y2="133.98" xlink:href="#a"/><linearGradient id="c" x1="123.85" y1="102.69" x2="123.85" y2="161.15" gradientTransform="translate(22.35 15.83)" xlink:href="#a"/><linearGradient id="d" x1="256" y1="104.99" x2="256" y2="541.94" xlink:href="#a"/><linearGradient id="e" x1="256" y1="126.12" x2="256" y2="483" gradientUnits="userSpaceOnUse"><stop offset="0" stop-color="#0cadf4"/><stop offset="1" stop-color="#3060a5"/></linearGradient></defs><title>Icon</title><circle cx="256" cy="57" r="48.5" fill="none" stroke-miterlimit="10" stroke-width="10" stroke="url(#a)"/><rect x="231.98" y="86.5" width="48.04" height="63" rx="13.75" ry="13.75" fill="url(#b)"/><rect x="122.18" y="129.5" width="48.04" height="63" rx="13.75" ry="13.75" transform="translate(-67.01 118.15) rotate(-36.4)" fill="url(#c)"/><circle cx="256" cy="309.5" r="194" fill="url(#d)"/><circle cx="256" cy="309.5" r="171" fill="url(#e)"/><rect x="247.25" y="153.5" width="17" height="30" rx="8.06" ry="8.06" fill="#fff"/><rect x="247.75" y="435.5" width="17" height="30" rx="8.06" ry="8.06" fill="#fff"/><rect x="388.5" y="294.25" width="17" height="30" rx="8.06" ry="8.06" transform="translate(706.25 -87.75) rotate(90)" fill="#fff"/><rect x="106.5" y="294.75" width="17" height="30" rx="8.06" ry="8.06" transform="translate(424.75 194.75) rotate(90)" fill="#fff"/><rect x="347.03" y="194.62" width="17" height="30" rx="8.06" ry="8.06" transform="translate(252.36 -190) rotate(45)" fill="#fff"/><rect x="147.97" y="394.38" width="17" height="30" rx="8.06" ry="8.06" transform="translate(335.3 9.26) rotate(45)" fill="#fff"/><rect x="347.38" y="394.03" width="17" height="30" rx="8.06" ry="8.06" transform="translate(896.75 446.61) rotate(135)" fill="#fff"/><rect x="147.62" y="194.97" width="17" height="30" rx="8.06" ry="8.06" transform="translate(414.99 248.05) rotate(135)" fill="#fff"/><path d="M282.47,304.32l-19.19-83.84c-1.77-7.74-12.8-7.74-14.57,0l-19.19,83.84a27.16,27.16,0,0,0,7.27,25.26h0a27.16,27.16,0,0,0,38.41,0h0A27.16,27.16,0,0,0,282.47,304.32ZM256,320a10.5,10.5,0,1,1,10.5-10.5A10.5,10.5,0,0,1,256,320Z" fill="#fff"/></svg>