<svg xmlns="http://www.w3.org/2000/svg" xmlns:xlink="http://www.w3.org/1999/xlink" viewBox="0 0 512 512"><defs><linearGradient id="a" x1="435.39" y1="319.76" x2="435.39" y2="22.48" gradientTransform="translate(-107.86 127.65) rotate(-22.8)" gradientUnits="userSpaceOnUse"><stop offset="0" stop-color="#f71111"/><stop offset="1" stop-color="#f2aa0a"/></linearGradient><linearGradient id="b" x1="338.81" y1="173.56" x2="531.97" y2="173.56" gradientTransform="translate(-107.86 127.65) rotate(-22.8)" gradientUnits="userSpaceOnUse"><stop offset="0" stop-color="#ffb600"/><stop offset="1" stop-color="#f2aa0a"/></linearGradient><linearGradient id="c" x1="230.93" y1="142.05" x2="230.93" y2="426.69" gradientTransform="translate(-107.86 127.65) rotate(-22.8)" gradientUnits="userSpaceOnUse"><stop offset="0" stop-color="#565656"/><stop offset="1" stop-color="#141414"/></linearGradient><linearGradient id="d" x1="245.58" y1="138.48" x2="245.58" y2="254.4" gradientTransform="translate(-41.92 15.32)" xlink:href="#c"/><linearGradient id="e" x1="109.49" y1="244.1" x2="109.49" y2="383.3" gradientTransform="translate(-107.86 127.65) rotate(-22.8)" gradientUnits="userSpaceOnUse"><stop offset="0" stop-color="#7f4d05"/><stop offset="1" stop-color="#773a04"/></linearGradient><linearGradient id="f" x1="95.04" y1="115.09" x2="174.27" y2="194.32" xlink:href="#c"/><linearGradient id="g" x1="150.69" y1="194.17" x2="334.34" y2="194.17" gradientTransform="translate(-51.76 17.52)" xlink:href="#c"/><linearGradient id="h" x1="150.69" y1="219.14" x2="334.34" y2="219.14" gradientTransform="translate(-42.09 15.57)" xlink:href="#c"/><linearGradient id="i" x1="150.69" y1="244.1" x2="334.34" y2="244.1" gradientTransform="translate(-32.41 13.62)" xlink:href="#c"/><linearGradient id="j" x1="421.94" y1="147.74" x2="421.94" y2="217.05" gradientTransform="translate(-72.94 -49.55)" xlink:href="#c"/></defs><title>Icon</title><path d="M478.3,68.11a98.61,98.61,0,0,0-36.64,25.13q-11.53,12.9-12.25,24a24.39,24.39,0,0,0,2,8.06q10.71,25.49,48.52,40.71-36.3-14.92-61.63-4.27a28.37,28.37,0,0,0-7.77,4.65q-7.07,8.26-7.7,26a104.51,104.51,0,0,0,9,44,96.17,96.17,0,0,0-25.36-36.58q-12.9-11.53-24-12.25a24.32,24.32,0,0,0-8,2q-25.49,10.71-40.71,48.52,14.92-36.56,4.3-61.83a28.47,28.47,0,0,0-4.69-7.6q-8.26-7.07-26-7.69a101.94,101.94,0,0,0-44.06,8.8,98.54,98.54,0,0,0,36.67-25.14q11.53-12.9,12.25-24a23,23,0,0,0-2-8.06Q279.44,87,241.88,71.7,278,86.61,303.27,76A28.23,28.23,0,0,0,311,71.35q7.07-8.26,7.7-26a102,102,0,0,0-8.84-44A98.5,98.5,0,0,0,335.1,38q12.9,11.53,24,12.25a24.21,24.21,0,0,0,8.06-2Q392.69,37.55,408,0q-15,36.31-4.45,61.48a28.16,28.16,0,0,0,4.64,7.66q8.23,7.08,26,7.7A101.87,101.87,0,0,0,478.3,68.11Z" fill="url(#a)"/><path d="M449.42,80.6a74.38,74.38,0,0,0-27.64,19q-8.7,9.73-9.24,18.13a18.39,18.39,0,0,0,1.52,6.08q8.08,19.22,36.6,30.7-27.38-11.25-46.49-3.22a21.4,21.4,0,0,0-5.86,3.5Q393,161,392.5,174.35a78.83,78.83,0,0,0,6.8,33.17,72.54,72.54,0,0,0-19.13-27.59q-9.73-8.7-18.13-9.24A18.34,18.34,0,0,0,356,172.2q-19.22,8.08-30.7,36.6,11.25-27.58,3.24-46.63a21.48,21.48,0,0,0-3.54-5.74q-6.23-5.33-19.63-5.8a76.89,76.89,0,0,0-33.24,6.64,74.32,74.32,0,0,0,27.66-19q8.7-9.73,9.24-18.13a17.33,17.33,0,0,0-1.52-6.08q-8.08-19.22-36.41-30.78,27.26,11.24,46.3,3.24a21.29,21.29,0,0,0,5.86-3.5q5.33-6.23,5.81-19.61a76.94,76.94,0,0,0-6.66-33.17,74.3,74.3,0,0,0,19,27.64q9.73,8.7,18.13,9.24a18.26,18.26,0,0,0,6.08-1.52q19.22-8.08,30.78-36.41-11.33,27.39-3.35,46.37a21.24,21.24,0,0,0,3.5,5.78q6.21,5.34,19.61,5.81A76.84,76.84,0,0,0,449.42,80.6Z" opacity="0.34" fill="url(#b)"/><path d="M206.39,453.62l-3.85-9.15a374.05,374.05,0,0,1-17.8-53.18c42.94-2.39,65.62-24,72.39-44.06,5.67-16.78,1.66-34.71-10.22-49.16l43.37-18.23a8.54,8.54,0,0,0,4.55-11.14l-29.68-70.61,102-42.88a8.53,8.53,0,0,0,4.55-11.14L351.91,97a8.53,8.53,0,0,0-11.14-4.55L121.08,184.79a8.52,8.52,0,0,0-4.55,11.14l6.6,15.69L115,264.21C19.75,329,57.18,452.84,79.86,506.79A8.53,8.53,0,0,0,91,511.34l110.83-46.59A8.49,8.49,0,0,0,206.39,453.62ZM241,341.77c-5.1,15.11-23.53,31.61-59.85,32.77-4.51-25.32-1.2-48.32,10.9-53.4l38-16C241,315.84,245.28,329.14,241,341.77Z" fill="url(#c)"/><rect x="152.11" y="188.53" width="103.1" height="92.92" rx="12.6" ry="12.6" transform="translate(-75.15 97.29) rotate(-22.8)" fill="url(#d)"/><path d="M136.07,305.11l4.87,3.45A29.66,29.66,0,0,1,153.13,337l-3.15,22a29.66,29.66,0,0,0,2,15.71l23.55,56a29.66,29.66,0,0,1-15.85,38.84l-27,11.33a29.66,29.66,0,0,1-39.46-17.46L88.6,450.13a181.19,181.19,0,0,1-3.86-108.51l5.56-20.2a29.66,29.66,0,0,1,17.1-19.47h0A29.66,29.66,0,0,1,136.07,305.11Z" opacity="0.48" fill="url(#e)"/><path d="M123.13,211.63c-20.81,8.75-50.56-20.57-60.24-32.62A8.51,8.51,0,0,0,53,176.49l-15.69,6.6a8.52,8.52,0,0,0-4.55,11.14c11.29,26.85,41,69.12,82.32,70Z" fill="url(#f)"/><rect x="153.12" y="203.01" width="80.31" height="17.36" rx="8.68" ry="8.68" transform="translate(-66.93 91.44) rotate(-22.8)" fill="url(#g)"/><rect x="162.8" y="226.02" width="80.31" height="17.36" rx="8.68" ry="8.68" transform="translate(-75.1 96.99) rotate(-22.8)" fill="url(#h)"/><rect x="172.47" y="249.03" width="80.31" height="17.36" rx="8.68" ry="8.68" transform="translate(-83.26 102.54) rotate(-22.8)" fill="url(#i)"/><rect x="331.63" y="86.02" width="34.73" height="79.23" rx="6.42" ry="6.42" transform="translate(-21.41 145.06) rotate(-22.8)" fill="url(#j)"/></svg>